<?xml version="1.0" encoding="UTF-8"?>
<svg version="1.1" xmlns="http://www.w3.org/2000/svg" width="148" height="58">
<path d="M0 0 C48.84 0 97.68 0 148 0 C148 19.14 148 38.28 148 58 C99.16 58 50.32 58 0 58 C0 38.86 0 19.72 0 0 Z " fill="#171410" transform="translate(0,0)"/>
<path d="M0 0 C2.64 0 5.28 0 8 0 C8 3.96 8 7.92 8 12 C8.66 12 9.32 12 10 12 C10.66 8.04 11.32 4.08 12 0 C14.97 0 17.94 0 21 0 C21.33 0.66 21.66 1.32 22 2 C22.66 1.34 23.32 0.68 24 0 C27.5625 -0.1875 27.5625 -0.1875 31 0 C32.52384778 1.52384778 32.16908901 2.87905372 32.1875 5 C32.14851868 9.85707274 31.23915513 14.31997662 30 19 C27.36 19 24.72 19 22 19 C21.80705592 14.17639811 22.24252386 10.50353262 24 6 C20.3672609 8.42182607 20.31868053 9.50445117 19.3125 13.625 C19.06113281 14.62789062 18.80976562 15.63078125 18.55078125 16.6640625 C18.36902344 17.43492188 18.18726562 18.20578125 18 19 C15.04142591 19.05379226 12.08382279 19.09357093 9.125 19.125 C7.86236328 19.15013672 7.86236328 19.15013672 6.57421875 19.17578125 C5.36572266 19.18544922 5.36572266 19.18544922 4.1328125 19.1953125 C3.38918457 19.20578613 2.64555664 19.21625977 1.87939453 19.22705078 C0 19 0 19 -2 17 C-2.65414139 11.11272745 -2.36975208 5.48005169 0 0 Z " fill="#F3C000" transform="translate(36,22)"/>
<path d="M0 0 C-0.33 2.64 -0.66 5.28 -1 8 C-1.90492187 7.94779297 -1.90492187 7.94779297 -2.828125 7.89453125 C-6.36644251 7.77468501 -9.23818445 7.70270613 -12.5625 9 C-14.87460278 12.21683865 -14.25501172 15.11107127 -14 19 C-10.7 19 -7.4 19 -4 19 C-3.8125 21.875 -3.8125 21.875 -4 25 C-8.25020662 27.83347108 -12.01063257 27.52603554 -17 27 C-20.68623011 25.38727433 -21.75355 24.369675 -24 21 C-24.69817723 15.8286175 -24.60610225 11.33342495 -22.4375 6.5625 C-15.54000488 -0.68871282 -9.6447861 -0.52212376 0 0 Z " fill="#F2BE00" transform="translate(34,14)"/>
<path d="M0 0 C2.20805494 2.84910315 2.65574131 4.86336059 2.43359375 8.46484375 C1.54444664 12.11244726 -0.36333481 13.92637737 -3.0625 16.5 C-7.12550912 17.85433637 -10.81525369 18.02132265 -15.0625 17.5 C-17.625 16.0625 -17.625 16.0625 -19.0625 13.5 C-19.885388 8.85717931 -19.70785632 5.56817598 -17.25 1.5 C-12.50940342 -2.83425973 -5.55802157 -2.72229628 0 0 Z " fill="#F5C000" transform="translate(134.0625,23.5)"/>
<path d="M0 0 C2.5625 1.1875 2.5625 1.1875 4 3 C4.48461324 5.76921852 4.4397827 7.25786669 3 9.6875 C-0.1167222 11.73284894 -3.36520458 12.22537147 -7 13 C-4.36 13 -1.72 13 1 13 C1 14.65 1 16.3 1 18 C-4.2199422 19.45921112 -9.70182213 20.28922173 -14.5625 17.5625 C-16.73974548 13.68132327 -17.09041231 10.32430634 -16 6 C-12.12869977 0.09686829 -6.70841769 -1.29506133 0 0 Z " fill="#EEBC01" transform="translate(87,22)"/>
<path d="M0 0 C2.64 0 5.28 0 8 0 C8.33 3.3 8.66 6.6 9 10 C10.32 6.7 11.64 3.4 13 0 C15.97 0 18.94 0 22 0 C20.6077541 4.62675657 18.70479016 8.64686231 16.375 12.875 C15.74335937 14.02742188 15.11171875 15.17984375 14.4609375 16.3671875 C13.97882813 17.23601563 13.49671875 18.10484375 13 19 C9.37 19 5.74 19 2 19 C0.32347379 12.50346094 -0.25175735 6.69954272 0 0 Z " fill="#F1BE00" transform="translate(93,22)"/>
<path d="M0 0 C2.64 0 5.28 0 8 0 C8 3.96 8 7.92 8 12 C8.66 12 9.32 12 10 12 C10.33 11.34 10.66 10.68 11 10 C10.67 12.97 10.34 15.94 10 19 C8.37536158 19.05395478 6.75021459 19.09277195 5.125 19.125 C4.22007813 19.14820312 3.31515625 19.17140625 2.3828125 19.1953125 C0 19 0 19 -2 17 C-2.65414139 11.11272745 -2.36975208 5.48005169 0 0 Z " fill="#EAB801" transform="translate(36,22)"/>
<path d="M0 0 C-0.875 4.875 -0.875 4.875 -2 6 C-5 6.125 -5 6.125 -8 6 C-9 5 -9 5 -9.0625 2.4375 C-9.041875 1.633125 -9.02125 0.82875 -9 0 C-5.93109813 -1.53445094 -3.29905734 -0.54984289 0 0 Z " fill="#EEBB01" transform="translate(46,14)"/>
<path d="M0 0 C0.99 0.33 1.98 0.66 3 1 C2.67 2.65 2.34 4.3 2 6 C0.68 6 -0.64 6 -2 6 C-1.125 1.125 -1.125 1.125 0 0 Z " fill="#4C3E0F" transform="translate(125,28)"/>
<path d="M0 0 C0.66 0.33 1.32 0.66 2 1 C1.34 4.3 0.68 7.6 0 11 C-0.33 11 -0.66 11 -1 11 C-1.33 9.02 -1.66 7.04 -2 5 C-2.99 5.495 -2.99 5.495 -4 6 C-2.25 1.125 -2.25 1.125 0 0 Z " fill="#55450E" transform="translate(115,25)"/>
</svg>
