<?xml version="1.0" encoding="UTF-8"?>
<svg version="1.1" xmlns="http://www.w3.org/2000/svg" width="1024" height="1024">
<path d="M0 0 C1.10304444 -0.00311998 2.20608889 -0.00623996 3.34255892 -0.00945449 C7.02803376 -0.01741337 10.71334299 -0.01111894 14.39881897 -0.00482178 C17.04546591 -0.00753259 19.69210154 -0.01102188 22.33874512 -0.01544189 C28.77498763 -0.02432147 35.21118341 -0.02242021 41.64742773 -0.01661661 C46.88028736 -0.01209408 52.11313392 -0.01148978 57.34599495 -0.01366425 C58.46449261 -0.01412394 58.46449261 -0.01412394 59.60558619 -0.01459293 C61.12055234 -0.0152324 62.63551849 -0.01588083 64.15048463 -0.01653811 C78.34695366 -0.0222373 92.54339683 -0.01569017 106.73986162 -0.00493738 C118.91069889 0.00399592 131.08149801 0.00244712 143.25233459 -0.0067749 C157.39754618 -0.01748797 171.54273512 -0.02168609 185.68795019 -0.01555037 C187.19755113 -0.0149133 188.70715207 -0.01428456 190.21675301 -0.01366425 C191.3307782 -0.01320142 191.3307782 -0.01320142 192.46730895 -0.01272924 C197.69098961 -0.01100527 202.91465585 -0.01391101 208.13833427 -0.01862335 C214.5084807 -0.02424379 220.87857786 -0.02269142 227.24871867 -0.01206186 C230.49642377 -0.00682048 233.74403029 -0.00580625 236.99173737 -0.01136017 C240.51776647 -0.01683364 244.04356559 -0.00995931 247.56958008 0 C248.58846359 -0.00446144 249.6073471 -0.00892289 250.65710586 -0.01351953 C261.28429207 0.04460935 269.86885169 1.65798755 277.79750061 9.07818604 C283.84265883 15.52888947 286.27808354 22.20885024 286.36000061 31.01177979 C286.38713135 32.1766114 286.38713135 32.1766114 286.41481018 33.36497498 C286.47102859 36.03626596 286.50419747 38.70727742 286.53578186 41.37896729 C286.56791473 43.33494348 286.60023098 45.29091666 286.63270569 47.24688721 C286.74550852 54.91561969 286.80099382 62.5846086 286.84828186 70.25396729 C286.85367981 71.1221685 286.85907776 71.99036972 286.86463928 72.88488007 C286.95252311 87.37110376 287.00117465 101.85725663 287.02861404 116.34371185 C287.03577291 119.56244528 287.04609086 122.78115561 287.05711365 125.99987793 C287.07387846 131.14942362 287.07974805 136.29887863 287.07766724 141.44845009 C287.0783813 143.37225077 287.08245197 145.29605356 287.09011841 147.2198391 C287.19358827 175.21801529 287.19358827 175.21801529 279.12562561 184.16412354 C272.42136261 190.44187279 264.36102036 194.36813125 255.10486412 194.38818836 C254.14861653 194.39264621 253.19236893 194.39710405 252.20714414 194.40169698 C251.15949687 194.40151262 250.1118496 194.40132825 249.03245544 194.40113831 C247.91720006 194.40481499 246.80194467 194.40849168 245.65289366 194.41227978 C241.90210047 194.42332516 238.15133498 194.42716193 234.40052795 194.43096924 C231.71668838 194.43723324 229.03285178 194.44386718 226.34901428 194.45088196 C218.28530987 194.47063308 210.22160423 194.48071095 202.15788168 194.48960975 C198.35868304 194.49399495 194.55948578 194.49936116 190.76028824 194.50459862 C178.12765734 194.5216097 165.4950273 194.53610325 152.8623867 194.54334736 C149.58506138 194.54525719 146.30773606 194.54717753 143.03041077 194.5491333 C142.21586743 194.54961704 141.40132409 194.55010078 140.56209762 194.55059918 C127.37088363 194.55889718 114.17976038 194.58423072 100.98858599 194.61671398 C87.43956057 194.6498059 73.89058123 194.66779805 60.34151518 194.6709916 C52.73662095 194.67315475 45.13185904 194.68187467 37.52700424 194.70745277 C31.04953213 194.72918898 24.5722245 194.73719591 18.09472005 194.72748599 C14.79212179 194.72294961 11.48993256 194.72698292 8.18736649 194.74424744 C4.5999627 194.76194948 1.01341472 194.75486726 -2.57398987 194.74171448 C-3.60825281 194.75268372 -4.64251575 194.76365297 -5.70811999 194.77495462 C-14.85167584 194.69422579 -22.84354644 192.29855847 -29.62046814 185.95318604 C-37.93496208 176.72664301 -38.44924122 167.45479585 -38.42637634 155.49102783 C-38.43072867 154.09736865 -38.43591356 152.70371187 -38.44186401 151.31005859 C-38.45521109 147.53923362 -38.45583735 143.76850915 -38.45330071 139.99766517 C-38.45222781 136.84188151 -38.45712266 133.68611792 -38.46190614 130.53033859 C-38.47298707 123.07988237 -38.47344708 115.62947657 -38.46739197 108.17901611 C-38.46135643 100.51219883 -38.47365569 92.84556525 -38.49496204 85.1787793 C-38.51262151 78.57979853 -38.51857245 71.98087599 -38.51532429 65.38187248 C-38.51351778 61.44797347 -38.51608387 57.51420544 -38.53003883 53.58032799 C-38.54268312 49.87758808 -38.54061133 46.17513277 -38.52762794 42.47239685 C-38.52416296 40.4800491 -38.53539209 38.48769239 -38.54719543 36.49537659 C-38.47908595 24.77673178 -36.75015778 16.90692285 -28.48374939 8.38677979 C-20.16780078 0.78123885 -10.80566208 -0.047212 0 0 Z " fill="#FEC11B" transform="translate(342.15171813964844,351.74603271484375)"/>
<path d="M0 0 C0 0.66 0 1.32 0 2 C2.475 1.505 2.475 1.505 5 1 C5 1.66 5 2.32 5 3 C6.36125 3.0928125 6.36125 3.0928125 7.75 3.1875 C23.55011115 5.50824067 37.04838916 16.06394543 48 27 C48.7425 27.73089844 49.485 28.46179688 50.25 29.21484375 C65.166693 44.8598909 71.33941456 66.12006486 70.95703125 87.39013672 C69.9205108 108.66114474 62.4489931 126.99466992 47.61328125 142.28125 C45.74156914 144.22850206 44.08518259 146.11547603 42.41796875 148.21875 C40.16978273 150.80470871 39.05498625 151.74485061 36 153 C34.24904996 154.08179716 32.49916647 155.16532135 30.75 156.25 C10.85713402 167.85619099 -8.43021722 168.32852668 -31 168 C-31 167.34 -31 166.68 -31 166 C-32.17046875 165.88785156 -33.3409375 165.77570313 -34.546875 165.66015625 C-52.54222745 163.38501824 -68.767304 150.7320227 -80.28515625 137.34375 C-95.37004816 117.57934442 -100.37862625 94.44005948 -97.5390625 70.0390625 C-93.21297353 47.79787565 -80.86760003 28.50689971 -62.80859375 14.83984375 C-43.01601945 1.87419355 -23.14150943 -0.21383325 0 0 Z M-41 62 C-48.25972274 72.02781846 -49.67364292 81.96458196 -48 94 C-46.2202569 101.85643501 -42.18254225 108.05042216 -35.6015625 112.69140625 C-25.77934254 118.81185862 -16.40784234 120.33341839 -5 119 C4.36738009 116.51707998 11.02737007 112.3587918 16.25 104.1875 C21.14809212 95.48120537 22.41235619 86.45344276 20.53515625 76.546875 C17.98620888 67.91966853 12.6177425 59.899254 5 55 C-10.76521231 47.29036639 -28.71313093 48.25245418 -41 62 Z " fill="#FDC11B" transform="translate(552,176)"/>
<path d="M0 0 C2.78922815 1.56529006 2.78922815 1.56529006 5.828125 2.48828125 C6.385 3.18953125 6.941875 3.89078125 7.515625 4.61328125 C9.47533947 7.04968302 11.18707346 8.66675006 13.578125 10.61328125 C26.60641141 21.82535673 34.51398766 39.00175006 36.05566406 55.99658203 C37.37898781 78.33079133 31.65781761 96.4738172 17.4921875 113.828125 C15.828125 115.48828125 15.828125 115.48828125 13.828125 115.48828125 C13.828125 116.14828125 13.828125 116.80828125 13.828125 117.48828125 C1.22036919 129.29725801 -14.19364664 135.76176769 -31.32421875 137.2421875 C-33.26342594 137.39855225 -33.26342594 137.39855225 -35.171875 138.48828125 C-54.14401074 137.12989444 -71.71087299 132.40789739 -86.171875 119.48828125 C-86.85765625 118.88371094 -87.5434375 118.27914062 -88.25 117.65625 C-93.65953278 112.58739391 -97.49540239 106.89738875 -101.171875 100.48828125 C-101.64753906 99.66199219 -102.12320312 98.83570313 -102.61328125 97.984375 C-111.62851352 81.21873409 -112.46994732 60.73386363 -107.5 42.60546875 C-104.39390543 32.41269996 -99.10552299 23.55208331 -92.171875 15.48828125 C-91.40101563 14.51890625 -90.63015625 13.54953125 -89.8359375 12.55078125 C-82.36756869 3.60783793 -71.9412384 -2.45815712 -61.171875 -6.51171875 C-60.28886719 -6.85074219 -59.40585937 -7.18976563 -58.49609375 -7.5390625 C-38.80664361 -13.72229069 -17.70277125 -9.43743627 0 0 Z M-56.8984375 45.08984375 C-63.15583941 51.8404399 -64.72797669 58.48928773 -64.453125 67.59375 C-63.7375929 74.95776787 -60.71009817 80.57206155 -55.171875 85.48828125 C-46.35466808 91.50637486 -38.65139589 92.27837734 -28.171875 90.48828125 C-20.29160536 87.6864076 -15.35649656 82.4055337 -11.359375 75.23828125 C-8.67464419 66.76018396 -8.14834952 58.61396788 -12.171875 50.48828125 C-17.13430278 43.09693683 -22.79194742 38.96992821 -31.42578125 36.96484375 C-41.21228359 35.43304338 -49.68837933 38.40178074 -56.8984375 45.08984375 Z " fill="#FDC11B" transform="translate(408.171875,197.51171875)"/>
<path d="M0 0 C10.56 0 21.12 0 32 0 C34.54613155 3.18266444 36.77782692 6.06337385 38.92578125 9.45703125 C39.46702637 10.30942383 40.00827148 11.16181641 40.56591797 12.04003906 C41.43047607 13.41240723 41.43047607 13.41240723 42.3125 14.8125 C42.92496582 15.78026367 43.53743164 16.74802734 44.16845703 17.74511719 C46.11655628 20.8274211 48.05920125 23.9130947 50 27 C50.61375488 27.97565918 51.22750977 28.95131836 51.85986328 29.95654297 C59.65450235 42.36022216 67.37280211 54.80994119 75.01904297 67.30566406 C79.04780091 73.87636367 83.13936153 80.40468677 87.2590332 86.91870117 C88.08950039 88.23268009 88.08950039 88.23268009 88.93674469 89.57320404 C90.29087943 91.71564893 91.64530443 93.8579097 93 96 C93.01030746 94.81205338 93.02061493 93.62410675 93.03123474 92.40016174 C93.12878933 81.23086589 93.2315059 70.06162798 93.33933926 58.89242649 C93.39461613 53.1495771 93.4480436 47.40672267 93.49731445 41.66381836 C93.5448879 36.1265548 93.59722789 30.58935533 93.65294075 25.05216789 C93.67339622 22.93457564 93.69210389 20.81696578 93.70907402 18.69934273 C93.73304763 15.74423961 93.76311143 12.78925886 93.79467773 9.83422852 C93.8004332 8.94950363 93.80618866 8.06477875 93.81211853 7.15324402 C93.88594784 1.11405216 93.88594784 1.11405216 95 0 C97.3756852 -0.0883967 99.72208674 -0.11530305 102.09765625 -0.09765625 C103.16094398 -0.09553383 103.16094398 -0.09553383 104.24571228 -0.09336853 C106.51801712 -0.08775443 108.79022475 -0.07519963 111.0625 -0.0625 C112.59960796 -0.05748681 114.13671745 -0.05292359 115.67382812 -0.04882812 C119.44925642 -0.03778042 123.22461171 -0.02050641 127 0 C127.15379549 20.30529075 127.30183162 40.61061564 127.4429636 60.91599846 C127.50862495 70.34359808 127.576189 79.77117698 127.64819336 89.19873047 C127.71092902 97.4133568 127.77013442 105.62799957 127.82505554 113.842682 C127.8542749 118.19447113 127.88529253 122.54623105 127.92053413 126.89797592 C127.95361959 130.99034909 127.98200021 135.08272738 128.00670624 139.17515945 C128.01663523 140.68046068 128.02831216 142.1857515 128.04183006 143.69102478 C128.05997145 145.73968982 128.07132639 147.78841166 128.08229065 149.83712769 C128.09473485 151.55995877 128.09473485 151.55995877 128.10743046 153.31759453 C128 156 128 156 127 158 C127.66 158.33 128.32 158.66 129 159 C124.28643987 159.24850467 119.57673554 159.42920182 114.8581543 159.54931641 C113.25624158 159.59940142 111.6547815 159.66749983 110.05444336 159.75439453 C96.86777683 160.45210175 96.86777683 160.45210175 92.60522461 157.13818359 C90.74847937 154.52011804 89.38462526 151.89374376 88 149 C86.81536094 147.09950071 85.61031433 145.21159235 84.38671875 143.3359375 C83.15091475 141.35065578 81.91791885 139.36362377 80.6875 137.375 C80.03015869 136.31812988 79.37281738 135.26125977 78.69555664 134.17236328 C76.79486241 131.11625378 74.89727558 128.05823252 73 125 C71.31493612 122.29014217 69.62737342 119.58186091 67.9375 116.875 C67.55271484 116.25826416 67.16792969 115.64152832 66.77148438 115.00610352 C63.86696517 110.36113079 60.92663148 105.73952073 57.97973633 101.12133789 C52.5320785 92.5836314 47.10798362 84.03182933 41.75 75.4375 C40.92665161 74.12616089 40.92665161 74.12616089 40.08666992 72.78833008 C39.5785376 71.97001709 39.07040527 71.1517041 38.546875 70.30859375 C38.10182617 69.59501709 37.65677734 68.88144043 37.19824219 68.14624023 C35.9045969 65.82911804 34.93516917 63.48102227 34 61 C32.66135719 65.01592843 32.86932228 68.87474284 32.88647461 73.0612793 C32.88632858 73.98830658 32.88618256 74.91533386 32.8860321 75.87045288 C32.88672946 78.93839854 32.89451363 82.00628368 32.90234375 85.07421875 C32.90420856 87.1998542 32.90563216 89.32549007 32.90663147 91.4511261 C32.91045171 97.04889103 32.92027781 102.64663007 32.93133545 108.24438477 C32.94156016 113.95523732 32.94613137 119.66609406 32.95117188 125.37695312 C32.96190049 136.5846468 32.97897103 147.79232125 33 159 C22.20866128 161.15826774 11.00504935 160 0 160 C0 107.2 0 54.4 0 0 Z " fill="#FDC01A" transform="translate(340,643)"/>
<path d="M0 0 C2.25726011 1.89121793 3.68646424 3.37292849 5 6 C5.10104893 8.2437632 5.13513957 10.49061738 5.14044189 12.73664856 C5.14341302 13.43720059 5.14638414 14.13775261 5.1494453 14.85953349 C5.15815123 17.21862346 5.15964214 19.57766279 5.16113281 21.93676758 C5.16575967 23.62351083 5.17078415 25.31025304 5.17617798 26.99699402 C5.18931721 31.58797358 5.19574996 36.17893851 5.20018864 40.76993394 C5.20311705 43.63674699 5.20722142 46.50355602 5.21169281 49.37036705 C5.22537206 58.3356893 5.23503649 67.30100239 5.2388947 76.26633435 C5.24337597 86.62330464 5.26092525 96.98014299 5.2898953 107.33707315 C5.31149763 115.33712817 5.32159822 123.33714603 5.32293582 131.33722991 C5.32398493 136.11779864 5.32991524 140.89824342 5.34775543 145.67878151 C5.36421099 150.1759204 5.36640389 154.67284184 5.35761642 159.17000008 C5.35684468 160.82077872 5.36120678 162.47156894 5.37107468 164.12231827 C5.38375646 166.37593907 5.37793847 168.62878531 5.36749268 170.88240051 C5.36969252 172.77417133 5.36969252 172.77417133 5.3719368 174.70415974 C4.8981463 178.90255532 3.60761765 181.69008932 0.3125 184.375 C-5.31848413 185.8968876 -10.06924722 184.19051841 -14.98828125 181.48828125 C-16.77110483 180.44335952 -18.54575599 179.38438475 -20.3125 178.3125 C-22.07875059 177.26578471 -23.84567988 176.22021385 -25.61328125 175.17578125 C-26.94166016 174.38494141 -26.94166016 174.38494141 -28.296875 173.578125 C-30.9908662 172.00533245 -33.71301653 170.50309983 -36.45703125 169.01953125 C-42.17141387 165.92935226 -47.77536866 162.66750507 -53.375 159.375 C-62.34288642 154.1174534 -71.3425015 148.92180955 -80.39990234 143.81982422 C-81.21152832 143.35979004 -82.0231543 142.89975586 -82.859375 142.42578125 C-83.56545898 142.02786377 -84.27154297 141.62994629 -84.99902344 141.2199707 C-90.76519831 137.70440508 -90.76519831 137.70440508 -92 134 C-92.33 133.34 -92.66 132.68 -93 132 C-93.11356738 129.57089439 -93.16779378 127.16977165 -93.17700195 124.73974609 C-93.18357315 123.99152588 -93.19014435 123.24330566 -93.19691467 122.47241211 C-93.21666709 119.98941957 -93.22831731 117.50648771 -93.23828125 115.0234375 C-93.24235678 114.17471699 -93.2464323 113.32599648 -93.25063133 112.45155716 C-93.27150483 107.95550021 -93.28579845 103.45947385 -93.29516602 98.96337891 C-93.30620611 94.3297807 -93.34057427 89.69666595 -93.38033772 85.06323814 C-93.40655388 81.49259582 -93.41486249 77.92206752 -93.41844749 74.35133743 C-93.42330409 72.64418922 -93.43489157 70.93704577 -93.45348549 69.22999191 C-93.6241676 52.51506191 -93.6241676 52.51506191 -89 46 C-86.13671875 43.70703125 -86.13671875 43.70703125 -82.6875 41.8125 C-82.04506348 41.45067627 -81.40262695 41.08885254 -80.74072266 40.71606445 C-79.3004939 39.90738255 -77.85483514 39.10831917 -76.40478516 38.31738281 C-73.80044087 36.89067806 -71.21774168 35.42939527 -68.63671875 33.9609375 C-64.73689869 31.74337307 -60.83210239 29.53510078 -56.921875 27.3359375 C-51.31274321 24.1791959 -45.71476476 21.0034016 -40.125 17.8125 C-39.26680664 17.32297852 -38.40861328 16.83345703 -37.52441406 16.32910156 C-33.38341899 13.96033212 -29.25750453 11.56981407 -25.15625 9.1328125 C-24.39038574 8.67801514 -23.62452148 8.22321777 -22.83544922 7.75463867 C-21.41793395 6.90998494 -20.00267713 6.0615226 -18.59033203 5.20825195 C-6.32903197 -2.10967732 -6.32903197 -2.10967732 0 0 Z " fill="#FEC11B" transform="translate(732,356)"/>
<path d="M0 0 C17.33611159 18.52074588 24.05076653 42.07274141 23.52734375 67.0234375 C23.13412984 78.46571807 20.89095366 88.96382713 17.46484375 99.82421875 C16.32071211 103.34183372 16.32071211 103.34183372 15.796875 106.38671875 C15.1609814 109.35787678 13.52256936 110.3839739 11.34375 112.50390625 C10.38228631 113.90441983 9.44740023 115.32334012 8.53125 116.75390625 C-0.64743041 130.65824389 -15.10484533 141.86259722 -31.65625 145.50390625 C-32.97625 145.50390625 -34.29625 145.50390625 -35.65625 145.50390625 C-35.98625 146.16390625 -36.31625 146.82390625 -36.65625 147.50390625 C-54.44371177 151.19735373 -74.72680185 146.29350855 -89.89990234 136.71484375 C-94.9952982 133.20175458 -99.34726296 128.92011536 -103.65625 124.50390625 C-104.24792969 123.93285156 -104.83960938 123.36179687 -105.44921875 122.7734375 C-121.26843401 106.27565 -124.20912922 81.57230267 -123.83984375 59.8828125 C-123.1412906 35.13841125 -114.40436809 13.75384949 -96.59375 -3.68359375 C-69.62569873 -26.59700794 -25.2560935 -24.23108971 0 0 Z M-77.23828125 23.21484375 C-89.24820218 38.11322667 -91.15170172 57.27066951 -89.45410156 75.69824219 C-88.02430315 87.35784355 -84.35080077 99.20456233 -75.65625 107.50390625 C-65.68092347 114.44472168 -55.75344228 117.45911144 -43.53125 116.17578125 C-33.90605502 114.22066352 -25.87375841 109.15916265 -20.21875 101.06640625 C-13.81195367 90.30224987 -11.40281693 79.92891301 -10.65625 67.50390625 C-10.57503906 66.35341797 -10.57503906 66.35341797 -10.4921875 65.1796875 C-9.92689051 50.04514533 -13.76470634 35.33884169 -23.46875 23.56640625 C-30.91101687 15.726461 -39.71066726 12.48969305 -50.40625 12.12890625 C-60.7271249 12.29342604 -70.13922351 15.53734427 -77.23828125 23.21484375 Z " fill="#FCC01B" transform="translate(880.65625,659.49609375)"/>
<path d="M0 0 C1.12349854 -0.01015137 2.24699707 -0.02030273 3.40454102 -0.03076172 C14.32230325 0.08224377 24.81597538 1.92877346 34.5625 7 C35.2313623 7.34297119 35.90022461 7.68594238 36.58935547 8.03930664 C46.36236835 13.28916568 54.03347723 20.71973976 59.4375 30.4375 C59.96085938 31.36433594 60.48421875 32.29117188 61.0234375 33.24609375 C65.49259039 41.6284805 68.4375 49.87518238 68.4375 59.4375 C56.8875 59.4375 45.3375 59.4375 33.4375 59.4375 C32.1175 55.8075 30.7975 52.1775 29.4375 48.4375 C25.06574965 40.44774935 18.97665992 35.93739277 10.3984375 33.12890625 C1.20149061 30.98133422 -8.49210675 31.90102771 -16.71484375 36.69140625 C-27.73936332 44.45723866 -33.41128212 54.79425856 -36.17651367 67.86987305 C-36.92591135 72.85495552 -36.84879943 77.84450385 -36.8125 82.875 C-36.82023437 83.94298828 -36.82796875 85.01097656 -36.8359375 86.11132812 C-36.80184631 100.06314597 -33.75589225 113.54769045 -24.5625 124.46484375 C-16.83313782 132.08853106 -8.14510403 134.19131156 2.4453125 134.53515625 C11.02743408 134.2550609 19.03232 131.56846197 25.3828125 125.61328125 C29.42124552 120.61090065 30.98727123 115.56307192 33.4375 109.4375 C44.9875 109.4375 56.5375 109.4375 68.4375 109.4375 C66.19140948 121.79099784 63.04242517 131.47305151 55.4375 141.4375 C54.88707031 142.17613281 54.33664063 142.91476562 53.76953125 143.67578125 C45.37461243 154.03965757 33.86895463 159.70024781 21.6171875 164.24609375 C18.535773 165.31591214 18.535773 165.31591214 16.1953125 166.66015625 C14.4375 167.4375 14.4375 167.4375 11.4375 166.4375 C10.06939893 166.40188594 8.69935493 166.42220342 7.33203125 166.48046875 C-12.83443205 167.08987281 -33.27905908 162.71165708 -48.5625 148.4375 C-64.06202974 132.80200947 -72.84521965 112.42370194 -73.5625 90.4375 C-73.60246094 89.37402344 -73.64242187 88.31054688 -73.68359375 87.21484375 C-74.11378885 64.76878187 -69.3346698 41.4041361 -54.1875 24.0625 C-52.66806863 22.49891421 -51.12619632 20.95681763 -49.5625 19.4375 C-48.78003906 18.64601563 -47.99757812 17.85453125 -47.19140625 17.0390625 C-41.25558931 11.32168363 -35.1795676 7.55056241 -27.5625 4.4375 C-26.59699219 4.02371094 -25.63148438 3.60992188 -24.63671875 3.18359375 C-16.48447362 0.26990215 -8.59356867 0.05505319 0 0 Z " fill="#FDC01B" transform="translate(189.5625,640.5625)"/>
<path d="M0 0 C0.91898575 0.00045319 1.8379715 0.00090637 2.7848053 0.00137329 C4.22861069 -0.00366463 4.22861069 -0.00366463 5.70158386 -0.00880432 C8.90064261 -0.01834554 12.0996492 -0.020259 15.29872131 -0.02133179 C17.51210553 -0.02454211 19.72548953 -0.02790601 21.93887329 -0.03141785 C26.58527621 -0.03741703 31.2316605 -0.03925693 35.87806702 -0.03866577 C41.84498888 -0.03856409 47.8117919 -0.05221874 53.77868557 -0.06943798 C58.35189365 -0.08053202 62.92507276 -0.08258578 67.49829292 -0.08205605 C69.69881157 -0.08324 71.89933087 -0.08768483 74.09983635 -0.09538841 C77.17199509 -0.10513625 80.24389276 -0.10233097 83.3160553 -0.09628296 C84.23301682 -0.10190247 85.14997833 -0.10752197 86.09472656 -0.11331177 C92.38681243 -0.08167817 92.38681243 -0.08167817 94.61512756 2.14663696 C93.95512756 2.14663696 93.29512756 2.14663696 92.61512756 2.14663696 C92.61512756 11.71663696 92.61512756 21.28663696 92.61512756 31.14663696 C70.50512756 31.14663696 48.39512756 31.14663696 25.61512756 31.14663696 C25.61512756 42.03663696 25.61512756 52.92663696 25.61512756 64.14663696 C29.934776 64.1350354 34.25442444 64.12343384 38.70497131 64.11148071 C42.14029664 64.10505381 45.57562028 64.09962957 49.01094818 64.09488678 C52.64228514 64.089597 56.27359891 64.08252339 59.90492249 64.07119751 C63.39972731 64.06036512 66.8945096 64.05435938 70.38932991 64.05175972 C72.37752145 64.04900145 74.36570388 64.04119009 76.35388184 64.03334045 C77.55505142 64.03326492 78.75622101 64.03318939 79.99378967 64.03311157 C81.58929909 64.02978065 81.58929909 64.02978065 83.21704102 64.02638245 C85.61512756 64.14663696 85.61512756 64.14663696 86.61512756 65.14663696 C86.61512756 74.71663696 86.61512756 84.28663696 86.61512756 94.14663696 C66.48512756 94.14663696 46.35512756 94.14663696 25.61512756 94.14663696 C25.61512756 106.02663696 25.61512756 117.90663696 25.61512756 130.14663696 C30.4400885 130.1350354 35.26504944 130.12343384 40.23622131 130.11148071 C43.28505078 130.1063738 46.333875 130.10156001 49.38270569 130.09780884 C54.22654815 130.09182101 59.07037179 130.08472231 63.91419983 130.07119751 C67.81748728 130.06036653 71.72075455 130.05435968 75.62405586 130.05175972 C77.11646403 130.04990585 78.60887105 130.04628596 80.10127068 130.04090691 C82.18460896 130.03369366 84.26786288 130.03264614 86.35121155 130.03311157 C87.53923874 130.03089096 88.72726593 130.02867035 89.95129395 130.02638245 C92.61512756 130.14663696 92.61512756 130.14663696 93.61512756 131.14663696 C93.70279869 133.21925773 93.72208629 135.29483991 93.71278381 137.36929321 C93.70794983 139.2593811 93.70794983 139.2593811 93.70301819 141.18765259 C93.6946616 142.52814805 93.68619664 143.86864284 93.67762756 145.20913696 C93.67261416 146.55353638 93.66805098 147.89793756 93.66395569 149.24234009 C93.65212244 152.54381637 93.63563727 155.84520499 93.61512756 159.14663696 C90.17021541 160.86909304 86.19895147 160.28448673 82.40785217 160.27603149 C80.97604866 160.27865997 80.97604866 160.27865997 79.51531982 160.28134155 C76.34935201 160.28575522 73.18343973 160.282824 70.01747131 160.27944946 C67.82554107 160.28012259 65.6336109 160.28109268 63.44168091 160.28234863 C58.84413442 160.2838249 54.24660734 160.2816731 49.64906311 160.27700806 C43.74151791 160.27130746 37.83401811 160.27459232 31.92647457 160.28058052 C27.39963435 160.28418518 22.87280497 160.28304805 18.34596443 160.28045273 C16.16695208 160.27978337 13.98793876 160.2806122 11.80892754 160.28293228 C8.77026107 160.2854576 5.73166929 160.28162007 2.69300842 160.27603149 C1.32855591 160.27906784 1.32855591 160.27906784 -0.0634613 160.28216553 C-6.27060942 160.26089998 -6.27060942 160.26089998 -7.38487244 159.14663696 C-7.48384663 157.11133023 -7.51119544 155.07253226 -7.51185608 153.03482056 C-7.51341607 152.38947042 -7.51497606 151.74412029 -7.51658332 151.0792141 C-7.52059493 148.90114481 -7.51740308 146.72314435 -7.51426697 144.54507446 C-7.51562094 142.98991861 -7.51740085 141.43476308 -7.51957703 139.87960815 C-7.52415187 135.64419017 -7.52236159 131.40879642 -7.51919794 127.17337799 C-7.5166746 122.75088941 -7.5190118 118.32840297 -7.52058411 113.90591431 C-7.52240588 106.47768784 -7.51999929 99.0494713 -7.51524353 91.62124634 C-7.5098009 83.02058555 -7.51156355 74.41994847 -7.51706994 65.81928825 C-7.52160085 58.44861078 -7.52225172 51.07794046 -7.51963127 43.70726204 C-7.51806837 39.29908993 -7.51787507 34.89092897 -7.52116776 30.48275757 C-7.52404615 26.33945348 -7.52207136 22.19618009 -7.5162735 18.05287933 C-7.51494573 16.52781984 -7.5153403 15.00275777 -7.51753616 13.47769928 C-7.52024703 11.40458184 -7.51686736 9.33156434 -7.51185608 7.25845337 C-7.51147905 6.09552765 -7.51110203 4.93260193 -7.51071358 3.73443604 C-7.26702329 -1.27681455 -4.32974949 0.02220882 0 0 Z " fill="#FEC21A" transform="translate(503.38487243652344,642.8533630371094)"/>
<path d="M0 0 C11.55 0 23.1 0 35 0 C38.37555715 9.00148572 38.37555715 9.00148572 39.78662109 13.55004883 C40.10525116 14.57330261 40.42388123 15.5965564 40.75216675 16.65081787 C41.25769577 18.28739349 41.25769577 18.28739349 41.7734375 19.95703125 C42.31413376 21.69862518 42.31413376 21.69862518 42.86575317 23.47540283 C43.83717598 26.60686909 44.8063607 29.73901703 45.77456665 32.87147903 C46.577974 35.46865406 47.38387878 38.06505152 48.18968582 40.66148281 C52.18661711 53.54364094 56.15080241 66.43447352 60.0078125 79.359375 C60.31020844 80.37057907 60.61260437 81.38178314 60.92416382 82.42362976 C62.33177641 87.13390806 63.73061878 91.8464876 65.11474609 96.5637207 C65.60749366 98.22094135 66.10047953 99.87809117 66.59375 101.53515625 C66.81064484 102.28645813 67.02753967 103.03776001 67.25100708 103.81182861 C67.77533507 105.5599012 68.37978656 107.28360468 69 109 C69.66 109.33 70.32 109.66 71 110 C71 111.65 71 113.3 71 115 C71.32871094 113.80890625 71.65742187 112.6178125 71.99609375 111.390625 C75.120144 100.19986288 78.51930332 89.12304775 82.11450195 78.07519531 C84.6143214 70.36908523 87.05229637 62.64623986 89.4453125 54.90625 C89.74773865 53.92893921 90.05016479 52.95162842 90.36175537 51.94470215 C91.57824546 48.01131184 92.79413276 44.07775814 94.00244141 40.1418457 C97.13603373 29.93500855 100.35454447 19.77115616 103.8671875 9.6875 C104.16609894 8.82680908 104.46501038 7.96611816 104.77297974 7.0793457 C106.87335308 1.12664692 106.87335308 1.12664692 108 0 C110.44830426 -0.08843793 112.86820599 -0.11528752 115.31640625 -0.09765625 C116.41298805 -0.09553383 116.41298805 -0.09553383 117.53172302 -0.09336853 C119.87535632 -0.08775408 122.21889539 -0.07519922 124.5625 -0.0625 C126.14778508 -0.05748686 127.73307166 -0.05292363 129.31835938 -0.04882812 C133.2122761 -0.03777997 137.10612205 -0.02050572 141 0 C142 2 142 2 141.61275291 3.77977371 C141.24954413 4.86443483 141.24954413 4.86443483 140.8789978 5.9710083 C140.46749733 7.21798744 140.46749733 7.21798744 140.04768372 8.49015808 C139.58201241 9.86256401 139.58201241 9.86256401 139.10693359 11.26269531 C138.78658646 12.22607315 138.46623932 13.18945099 138.13618469 14.18202209 C137.06412146 17.39983847 135.98133486 20.61393998 134.8984375 23.828125 C134.14282813 26.08815315 133.38784378 28.34839036 132.63345337 30.60882568 C130.62959087 36.60693723 128.61650465 42.60191587 126.60174561 48.59637451 C124.9996073 53.36803486 123.40381819 58.14180511 121.80845261 62.91573334 C113.97609139 86.35245799 106.11121895 109.7775981 98.03866577 133.13287354 C97.55505818 134.53611195 97.07162259 135.93940966 96.58837891 137.34277344 C96.36175001 137.99783497 96.13512112 138.6528965 95.90162468 139.32780838 C94.06742011 144.67815912 92.47616517 150.08597166 90.97103882 155.53717041 C90 158 90 158 87 160 C84.31405085 160.17162025 81.73455099 160.23224552 79.05078125 160.1953125 C78.27816452 160.1924826 77.50554779 160.18965271 76.70951843 160.18673706 C74.24368757 160.17554878 71.77822094 160.15044703 69.3125 160.125 C67.63997921 160.11496843 65.96745272 160.10584289 64.29492188 160.09765625 C60.19647441 160.07561392 56.09829894 160.04109363 52 160 C51.30078125 157.90234375 50.6015625 155.8046875 49.90234375 153.70703125 C49.67709518 153.03133087 49.45184662 152.35563049 49.21977234 151.65945435 C47.91819639 147.75491874 46.61686959 143.85030032 45.31591797 139.94555664 C42.63855437 131.91040551 39.95943963 123.87585475 37.27272034 115.84382629 C30.09824005 94.39462107 22.99126393 72.92594263 16.01953125 51.40991211 C13.27726612 42.95305862 10.51329462 34.50486928 7.6796875 26.078125 C7.41820923 25.29959167 7.15673096 24.52105835 6.8873291 23.71893311 C5.66407854 20.07960334 4.43549946 16.44220864 3.19824219 12.80761719 C2.77005364 11.53845486 2.34198607 10.2692517 1.9140625 9 C1.5423291 7.906875 1.1705957 6.81375 0.78759766 5.6875 C0 3 0 3 0 0 Z " fill="#FCC01A" transform="translate(611,643)"/>
<path d="M0 0 C2.27818415 -0.00218869 4.5558858 -0.0203553 6.83398438 -0.03930664 C8.27669105 -0.04224019 9.71940003 -0.04422524 11.16210938 -0.04516602 C13.13824219 -0.05132935 13.13824219 -0.05132935 15.15429688 -0.05761719 C18.28710938 0.18530273 18.28710938 0.18530273 20.28710938 2.18530273 C20.53599834 4.31259441 20.53599834 4.31259441 20.53434753 7.00065613 C20.53854202 8.01878891 20.54273651 9.03692169 20.54705811 10.08590698 C20.5414386 11.20820709 20.53581909 12.3305072 20.5300293 13.48681641 C20.53192764 14.66626328 20.53382599 15.84571014 20.53578186 17.06089783 C20.53886262 20.31075265 20.53294219 23.56044159 20.52282882 26.8102777 C20.51401641 30.2391021 20.51580677 33.66792257 20.51618958 37.09675598 C20.5152506 42.88662979 20.50655647 48.6764515 20.49291992 54.46630859 C20.47740697 61.07542837 20.47191429 67.68449027 20.47265548 74.29362696 C20.47334411 81.40290824 20.46630727 88.51216833 20.45720887 95.62144303 C20.45511993 97.6256663 20.45452964 99.62989094 20.45396996 101.63411522 C20.44276312 120.83801232 20.01137032 139.99723495 19.28710938 159.18530273 C15.80928355 160.34457801 13.09907681 160.2984334 9.43164062 160.28295898 C8.43918587 160.28083656 8.43918587 160.28083656 7.42668152 160.27867126 C5.3176111 160.27308269 3.2086476 160.26053238 1.09960938 160.24780273 C-0.33202971 160.24278625 -1.76367047 160.2382236 -3.1953125 160.23413086 C-6.70120651 160.22311704 -10.20703813 160.20586028 -13.71289062 160.18530273 C-14.92117282 155.46565573 -14.84026002 150.88677476 -14.81054688 146.05249023 C-14.80842445 144.74201218 -14.80842445 144.74201218 -14.80625916 143.40505981 C-14.80068068 140.6234387 -14.78814141 137.8418993 -14.77539062 135.06030273 C-14.77037201 133.18139766 -14.76580973 131.30249131 -14.76171875 129.42358398 C-14.75355728 125.98850885 -14.74289335 122.55346396 -14.72875977 119.1184082 C-14.71404092 115.47039931 -14.70649556 112.22580479 -15.27539062 108.62280273 C-15.71289062 105.18530273 -15.71289062 105.18530273 -14.71289062 103.18530273 C-14.87789063 102.19530273 -15.04289062 101.20530273 -15.21289062 100.18530273 C-15.71289062 97.18530273 -15.71289062 97.18530273 -14.71289062 95.18530273 C-14.70853248 93.63235188 -14.77131595 92.07892553 -14.86914062 90.52905273 C-14.92199219 89.58803711 -14.97484375 88.64702148 -15.02929688 87.67749023 C-15.14978253 85.71383043 -15.27211694 83.75028301 -15.39648438 81.78686523 C-15.69528942 76.40837436 -15.59261859 71.36808449 -14.96191406 66.02514648 C-14.46829779 60.39598518 -14.56573593 54.7356596 -14.58251953 49.08862305 C-14.58791516 46.92546698 -14.58252546 44.76251531 -14.57617188 42.59936523 C-14.57683217 41.20613562 -14.57811233 39.81290612 -14.58007812 38.41967773 C-14.58120605 37.17412109 -14.58233398 35.92856445 -14.58349609 34.64526367 C-14.70481702 31.40118784 -15.16358371 28.37823974 -15.71289062 25.18530273 C-15.55949219 24.43893555 -15.40609375 23.69256836 -15.24804688 22.92358398 C-14.42722131 18.7235933 -14.87455472 14.62448034 -15.15039062 10.37280273 C-15.20259766 9.48915039 -15.25480469 8.60549805 -15.30859375 7.69506836 C-15.43763681 5.52479865 -15.57449018 3.35499581 -15.71289062 1.18530273 C-11.2085821 -1.06685153 -5.01432851 -0.00054174 0 0 Z " fill="#FEC21A" transform="translate(291.712890625,642.814697265625)"/>
<path d="M0 0 C0.91898575 0.00045319 1.8379715 0.00090637 2.7848053 0.00137329 C4.22861069 -0.00366463 4.22861069 -0.00366463 5.70158386 -0.00880432 C8.90064261 -0.01834554 12.0996492 -0.020259 15.29872131 -0.02133179 C17.51210553 -0.02454211 19.72548953 -0.02790601 21.93887329 -0.03141785 C26.58527621 -0.03741703 31.2316605 -0.03925693 35.87806702 -0.03866577 C41.84498888 -0.03856409 47.8117919 -0.05221874 53.77868557 -0.06943798 C58.35189365 -0.08053202 62.92507276 -0.08258578 67.49829292 -0.08205605 C69.69881157 -0.08324 71.89933087 -0.08768483 74.09983635 -0.09538841 C77.17199509 -0.10513625 80.24389276 -0.10233097 83.3160553 -0.09628296 C84.23301682 -0.10190247 85.14997833 -0.10752197 86.09472656 -0.11331177 C92.38681243 -0.08167817 92.38681243 -0.08167817 94.61512756 2.14663696 C93.95512756 2.14663696 93.29512756 2.14663696 92.61512756 2.14663696 C92.61512756 11.71663696 92.61512756 21.28663696 92.61512756 31.14663696 C70.50512756 31.14663696 48.39512756 31.14663696 25.61512756 31.14663696 C25.61512756 42.36663696 25.61512756 53.58663696 25.61512756 65.14663696 C25.28512756 65.14663696 24.95512756 65.14663696 24.61512756 65.14663696 C24.61512756 53.26663696 24.61512756 41.38663696 24.61512756 29.14663696 C46.72512756 29.14663696 68.83512756 29.14663696 91.61512756 29.14663696 C91.61512756 20.23663696 91.61512756 11.32663696 91.61512756 2.14663696 C59.27512756 2.14663696 26.93512756 2.14663696 -6.38487244 2.14663696 C-6.38487244 53.62663696 -6.38487244 105.10663696 -6.38487244 158.14663696 C25.95512756 158.14663696 58.29512756 158.14663696 91.61512756 158.14663696 C91.61512756 149.56663696 91.61512756 140.98663696 91.61512756 132.14663696 C69.50512756 132.14663696 47.39512756 132.14663696 24.61512756 132.14663696 C24.59450256 125.73226196 24.57387756 119.31788696 24.55262756 112.70913696 C24.54352356 110.68216675 24.53441956 108.65519653 24.52503967 106.56680298 C24.52212053 104.96971707 24.51957197 103.37263041 24.51747131 101.77554321 C24.51235535 100.9385791 24.50723938 100.10161499 24.50196838 99.23928833 C24.50165832 97.20805431 24.55272569 95.17691225 24.61512756 93.14663696 C25.61512756 92.14663696 25.61512756 92.14663696 28.01321411 92.06434631 C29.07688705 92.08433182 30.14056 92.10431732 31.23646545 92.12490845 C33.03821983 92.15505287 33.03821983 92.15505287 34.87637329 92.18580627 C36.18363876 92.21284134 37.49090424 92.2398764 38.83778381 92.26773071 C40.1815615 92.29202233 41.52534734 92.31586636 42.86914062 92.33927917 C46.41202566 92.4022156 49.95476685 92.47125488 53.49751282 92.54153442 C57.1102185 92.61213182 60.72302573 92.67705573 64.33583069 92.74234009 C71.42906971 92.87093694 78.52203432 93.00905085 85.61512756 93.14663696 C85.61512756 84.23663696 85.61512756 75.32663696 85.61512756 66.14663696 C66.14512756 66.14663696 46.67512756 66.14663696 26.61512756 66.14663696 C26.61512756 65.81663696 26.61512756 65.48663696 26.61512756 65.14663696 C46.41512756 65.14663696 66.21512756 65.14663696 86.61512756 65.14663696 C86.61512756 74.71663696 86.61512756 84.28663696 86.61512756 94.14663696 C66.48512756 94.14663696 46.35512756 94.14663696 25.61512756 94.14663696 C25.61512756 106.02663696 25.61512756 117.90663696 25.61512756 130.14663696 C30.4400885 130.1350354 35.26504944 130.12343384 40.23622131 130.11148071 C43.28505078 130.1063738 46.333875 130.10156001 49.38270569 130.09780884 C54.22654815 130.09182101 59.07037179 130.08472231 63.91419983 130.07119751 C67.81748728 130.06036653 71.72075455 130.05435968 75.62405586 130.05175972 C77.11646403 130.04990585 78.60887105 130.04628596 80.10127068 130.04090691 C82.18460896 130.03369366 84.26786288 130.03264614 86.35121155 130.03311157 C87.53923874 130.03089096 88.72726593 130.02867035 89.95129395 130.02638245 C92.61512756 130.14663696 92.61512756 130.14663696 93.61512756 131.14663696 C93.70279869 133.21925773 93.72208629 135.29483991 93.71278381 137.36929321 C93.70794983 139.2593811 93.70794983 139.2593811 93.70301819 141.18765259 C93.6946616 142.52814805 93.68619664 143.86864284 93.67762756 145.20913696 C93.67261416 146.55353638 93.66805098 147.89793756 93.66395569 149.24234009 C93.65212244 152.54381637 93.63563727 155.84520499 93.61512756 159.14663696 C90.17021541 160.86909304 86.19895147 160.28448673 82.40785217 160.27603149 C80.97604866 160.27865997 80.97604866 160.27865997 79.51531982 160.28134155 C76.34935201 160.28575522 73.18343973 160.282824 70.01747131 160.27944946 C67.82554107 160.28012259 65.6336109 160.28109268 63.44168091 160.28234863 C58.84413442 160.2838249 54.24660734 160.2816731 49.64906311 160.27700806 C43.74151791 160.27130746 37.83401811 160.27459232 31.92647457 160.28058052 C27.39963435 160.28418518 22.87280497 160.28304805 18.34596443 160.28045273 C16.16695208 160.27978337 13.98793876 160.2806122 11.80892754 160.28293228 C8.77026107 160.2854576 5.73166929 160.28162007 2.69300842 160.27603149 C1.32855591 160.27906784 1.32855591 160.27906784 -0.0634613 160.28216553 C-6.27060942 160.26089998 -6.27060942 160.26089998 -7.38487244 159.14663696 C-7.48384663 157.11133023 -7.51119544 155.07253226 -7.51185608 153.03482056 C-7.51341607 152.38947042 -7.51497606 151.74412029 -7.51658332 151.0792141 C-7.52059493 148.90114481 -7.51740308 146.72314435 -7.51426697 144.54507446 C-7.51562094 142.98991861 -7.51740085 141.43476308 -7.51957703 139.87960815 C-7.52415187 135.64419017 -7.52236159 131.40879642 -7.51919794 127.17337799 C-7.5166746 122.75088941 -7.5190118 118.32840297 -7.52058411 113.90591431 C-7.52240588 106.47768784 -7.51999929 99.0494713 -7.51524353 91.62124634 C-7.5098009 83.02058555 -7.51156355 74.41994847 -7.51706994 65.81928825 C-7.52160085 58.44861078 -7.52225172 51.07794046 -7.51963127 43.70726204 C-7.51806837 39.29908993 -7.51787507 34.89092897 -7.52116776 30.48275757 C-7.52404615 26.33945348 -7.52207136 22.19618009 -7.5162735 18.05287933 C-7.51494573 16.52781984 -7.5153403 15.00275777 -7.51753616 13.47769928 C-7.52024703 11.40458184 -7.51686736 9.33156434 -7.51185608 7.25845337 C-7.51147905 6.09552765 -7.51110203 4.93260193 -7.51071358 3.73443604 C-7.26702329 -1.27681455 -4.32974949 0.02220882 0 0 Z " fill="#F1AC1B" transform="translate(503.38487243652344,642.8533630371094)"/>
<path d="M0 0 C2.27818415 -0.00218869 4.5558858 -0.0203553 6.83398438 -0.03930664 C8.27669105 -0.04224019 9.71940003 -0.04422524 11.16210938 -0.04516602 C13.13824219 -0.05132935 13.13824219 -0.05132935 15.15429688 -0.05761719 C18.28710938 0.18530273 18.28710938 0.18530273 20.28710938 2.18530273 C20.53599834 4.31259441 20.53599834 4.31259441 20.53434753 7.00065613 C20.53854202 8.01878891 20.54273651 9.03692169 20.54705811 10.08590698 C20.5414386 11.20820709 20.53581909 12.3305072 20.5300293 13.48681641 C20.53192764 14.66626328 20.53382599 15.84571014 20.53578186 17.06089783 C20.53886262 20.31075265 20.53294219 23.56044159 20.52282882 26.8102777 C20.51401641 30.2391021 20.51580677 33.66792257 20.51618958 37.09675598 C20.5152506 42.88662979 20.50655647 48.6764515 20.49291992 54.46630859 C20.47740697 61.07542837 20.47191429 67.68449027 20.47265548 74.29362696 C20.47334411 81.40290824 20.46630727 88.51216833 20.45720887 95.62144303 C20.45511993 97.6256663 20.45452964 99.62989094 20.45396996 101.63411522 C20.44276312 120.83801232 20.01137032 139.99723495 19.28710938 159.18530273 C15.80928355 160.34457801 13.09907681 160.2984334 9.43164062 160.28295898 C8.43918587 160.28083656 8.43918587 160.28083656 7.42668152 160.27867126 C5.3176111 160.27308269 3.2086476 160.26053238 1.09960938 160.24780273 C-0.33202971 160.24278625 -1.76367047 160.2382236 -3.1953125 160.23413086 C-6.70120651 160.22311704 -10.20703813 160.20586028 -13.71289062 160.18530273 C-14.92117282 155.46565573 -14.84026002 150.88677476 -14.81054688 146.05249023 C-14.80842445 144.74201218 -14.80842445 144.74201218 -14.80625916 143.40505981 C-14.80068068 140.6234387 -14.78814141 137.8418993 -14.77539062 135.06030273 C-14.77037201 133.18139766 -14.76580973 131.30249131 -14.76171875 129.42358398 C-14.75355728 125.98850885 -14.74289335 122.55346396 -14.72875977 119.1184082 C-14.71404092 115.47039931 -14.70649556 112.22580479 -15.27539062 108.62280273 C-15.71289062 105.18530273 -15.71289062 105.18530273 -14.71289062 103.18530273 C-14.87789063 102.19530273 -15.04289062 101.20530273 -15.21289062 100.18530273 C-15.71289062 97.18530273 -15.71289062 97.18530273 -14.71289062 95.18530273 C-14.70853248 93.63235188 -14.77131595 92.07892553 -14.86914062 90.52905273 C-14.92199219 89.58803711 -14.97484375 88.64702148 -15.02929688 87.67749023 C-15.14978253 85.71383043 -15.27211694 83.75028301 -15.39648438 81.78686523 C-15.69528942 76.40837436 -15.59261859 71.36808449 -14.96191406 66.02514648 C-14.46829779 60.39598518 -14.56573593 54.7356596 -14.58251953 49.08862305 C-14.58791516 46.92546698 -14.58252546 44.76251531 -14.57617188 42.59936523 C-14.57683217 41.20613562 -14.57811233 39.81290612 -14.58007812 38.41967773 C-14.58120605 37.17412109 -14.58233398 35.92856445 -14.58349609 34.64526367 C-14.70481702 31.40118784 -15.16358371 28.37823974 -15.71289062 25.18530273 C-15.55949219 24.43893555 -15.40609375 23.69256836 -15.24804688 22.92358398 C-14.42722131 18.7235933 -14.87455472 14.62448034 -15.15039062 10.37280273 C-15.20259766 9.48915039 -15.25480469 8.60549805 -15.30859375 7.69506836 C-15.43763681 5.52479865 -15.57449018 3.35499581 -15.71289062 1.18530273 C-11.2085821 -1.06685153 -5.01432851 -0.00054174 0 0 Z M-12.71289062 2.18530273 C-12.71289062 53.66530273 -12.71289062 105.14530273 -12.71289062 158.18530273 C-2.48289062 158.18530273 7.74710937 158.18530273 18.28710938 158.18530273 C17.79210937 80.96530273 17.79210937 80.96530273 17.28710938 2.18530273 C7.38710938 2.18530273 -2.51289063 2.18530273 -12.71289062 2.18530273 Z " fill="#EFAB1C" transform="translate(291.712890625,642.814697265625)"/>
<path d="M0 0 C10.56 0 21.12 0 32 0 C32.495 0.99 32.495 0.99 33 2 C22.44 2 11.88 2 1 2 C1 53.48 1 104.96 1 158 C15.85 157.505 15.85 157.505 31 157 C31 124 31 91 31 57 C31.66 57 32.32 57 33 57 C33.268125 57.804375 33.53625 58.60875 33.8125 59.4375 C34.4003125 60.7059375 34.4003125 60.7059375 35 62 C35.99 62.33 36.98 62.66 38 63 C38.33 64.98 38.66 66.96 39 69 C36.27573689 66.64722731 35.1858237 64.37503669 34 61 C32.66135719 65.01592843 32.86932228 68.87474284 32.88647461 73.0612793 C32.88632858 73.98830658 32.88618256 74.91533386 32.8860321 75.87045288 C32.88672946 78.93839854 32.89451363 82.00628368 32.90234375 85.07421875 C32.90420856 87.1998542 32.90563216 89.32549007 32.90663147 91.4511261 C32.91045171 97.04889103 32.92027781 102.64663007 32.93133545 108.24438477 C32.94156016 113.95523732 32.94613137 119.66609406 32.95117188 125.37695312 C32.96190049 136.5846468 32.97897103 147.79232125 33 159 C22.20866128 161.15826774 11.00504935 160 0 160 C0 107.2 0 54.4 0 0 Z " fill="#ECA71C" transform="translate(340,643)"/>
<path d="M0 0 C0.33 0 0.66 0 1 0 C1 51.81 1 103.62 1 157 C33.34 157 65.68 157 99 157 C99 148.09 99 139.18 99 130 C99.66 130 100.32 130 101 130 C101 139.24 101 148.48 101 158 C97.55508785 159.72245608 93.58382391 159.13784976 89.79272461 159.12939453 C88.3609211 159.13202301 88.3609211 159.13202301 86.90019226 159.13470459 C83.73422445 159.13911826 80.56831216 159.13618703 77.40234375 159.1328125 C75.21041351 159.13348562 73.01848333 159.13445572 70.82655334 159.13571167 C66.22900686 159.13718794 61.63147978 159.13503614 57.03393555 159.13037109 C51.12639035 159.1246705 45.21889054 159.12795536 39.31134701 159.13394356 C34.78450678 159.13754821 30.25767741 159.13641108 25.73083687 159.13381577 C23.55182452 159.1331464 21.37281119 159.13397523 19.19379997 159.13629532 C16.1551335 159.13882064 13.11654173 159.13498311 10.07788086 159.12939453 C8.71342834 159.13243088 8.71342834 159.13243088 7.32141113 159.13552856 C1.11426301 159.11426301 1.11426301 159.11426301 0 158 C-0.09678239 155.96238813 -0.12186965 153.92136288 -0.12025452 151.88145447 C-0.12110894 151.23539877 -0.12196337 150.58934307 -0.12284368 149.92370993 C-0.12450024 147.74330183 -0.11897429 145.56296945 -0.11352539 143.38256836 C-0.11324353 141.82579042 -0.11340123 140.26901236 -0.1139679 138.7122345 C-0.11425592 134.47274796 -0.10835846 130.23328946 -0.10139394 125.99380946 C-0.09516115 121.5681858 -0.09455666 117.14256157 -0.09336853 112.7169342 C-0.09025499 104.33046022 -0.0820413 95.9439992 -0.07201904 87.55753094 C-0.0608586 78.01234651 -0.05534763 68.46716148 -0.05032361 58.92197216 C-0.03985871 39.28130752 -0.02225883 19.64065458 0 0 Z " fill="#E79B1E" transform="translate(496,644)"/>
<path d="M0 0 C2.25726011 1.89121793 3.68646424 3.37292849 5 6 C5.0946326 8.25513603 5.12189725 10.51317409 5.12025452 12.77029419 C5.12110894 13.47437405 5.12196337 14.1784539 5.12284368 14.90386951 C5.12449721 17.27464292 5.11897919 19.64534634 5.11352539 22.01611328 C5.11324347 23.710968 5.11340136 25.40582284 5.1139679 27.10067749 C5.11425566 31.71199287 5.10836228 36.32328241 5.10139394 40.93459177 C5.09515695 45.74992143 5.09455633 50.56525164 5.09336853 55.38058472 C5.09025624 64.50367702 5.08204421 73.62675739 5.07201904 82.74984443 C5.06085475 93.13421398 5.05534666 103.5185841 5.05032361 113.90295815 C5.03986152 135.26864544 5.02226404 156.63432197 5 178 C4.67 178 4.34 178 4 178 C3.67 120.91 3.34 63.82 3 5 C-0.95881924 3.4164723 -3.89103833 2.63917182 -8 2 C-8.66 1.67 -9.32 1.34 -10 1 C-6.4215878 -1.33973105 -4.05713232 -1.18333026 0 0 Z " fill="#D89C1B" transform="translate(732,356)"/>
<path d="M0 0 C0.66 0 1.32 0 2 0 C2.268125 0.804375 2.53625 1.60875 2.8125 2.4375 C3.204375 3.283125 3.59625 4.12875 4 5 C4.99 5.33 5.98 5.66 7 6 C7.33 7.98 7.66 9.96 8 12 C5.27573689 9.64722731 4.1858237 7.37503669 3 4 C2.00706191 6.97881427 1.87880215 8.91487239 1.88647461 12.0222168 C1.88655014 13.04304855 1.88662567 14.06388031 1.88670349 15.11564636 C1.89186478 16.21572525 1.89702606 17.31580414 1.90234375 18.44921875 C1.9037587 19.5769722 1.90517365 20.70472565 1.90663147 21.86665344 C1.9122353 25.47362912 1.92478847 29.08054304 1.9375 32.6875 C1.94251451 35.13085848 1.9470775 37.57421793 1.95117188 40.01757812 C1.96220597 46.01173987 1.97894785 52.00586552 2 58 C1.67 58 1.34 58 1 58 C-0.17891148 45.70582733 -0.11535979 33.4622763 -0.0625 21.125 C-0.05747274 19.06901151 -0.05291201 17.01302183 -0.04882812 14.95703125 C-0.03792482 9.97132408 -0.02072847 4.9856756 0 0 Z " fill="#F5B21C" transform="translate(371,700)"/>
<path d="M0 0 C11.55 0 23.1 0 35 0 C35.99 2.64 36.98 5.28 38 8 C38.4125 9.0725 38.825 10.145 39.25 11.25 C40.03806745 14.13958063 39.83097703 15.2221625 39 18 C38.32815382 15.89748139 37.66269032 13.79292237 37 11.6875 C36.62875 10.51574219 36.2575 9.34398437 35.875 8.13671875 C35 5 35 5 35 2 C24.11 2 13.22 2 2 2 C1.67 2.99 1.34 3.98 1 5 C0.67 3.35 0.34 1.7 0 0 Z " fill="#EEA71B" transform="translate(611,643)"/>
<path d="M0 0 C0.495 0.99 0.495 0.99 1 2 C0.109375 3.83984375 0.109375 3.83984375 -1.25 5.9375 C-1.68828125 6.62714844 -2.1265625 7.31679688 -2.578125 8.02734375 C-5.69600987 12.35298072 -8.12258813 13.60454139 -13.3125 15.125 C-14.42238281 15.45757812 -15.53226563 15.79015625 -16.67578125 16.1328125 C-27.68742923 19.00541632 -36.43385203 18.32185806 -47 14 C-48.88671875 12.36328125 -48.88671875 12.36328125 -50 11 C-46 12.33333333 -42 13.66666667 -38 15 C-26.21091207 15.89797188 -16.20460489 15.28547433 -6.31640625 8.03125 C-3.60292493 5.65180601 -1.88042221 3.06439174 0 0 Z " fill="#ECA61E" transform="translate(568,279)"/>
<path d="M0 0 C10.89 0 21.78 0 33 0 C33.495 0.99 33.495 0.99 34 2 C33.34 2.99 32.68 3.98 32 5 C32 4.01 32 3.02 32 2 C21.44 2 10.88 2 0 2 C-1.485 7.445 -1.485 7.445 -3 13 C-3.66 13.99 -4.32 14.98 -5 16 C-4.45173957 9.55793995 -2.85058738 6.41382161 0 0 Z " fill="#EAA41B" transform="translate(719,643)"/>
<path d="M0 0 C1.27875 0.28875 2.5575 0.5775 3.875 0.875 C4.71160156 1.05546875 5.54820312 1.2359375 6.41015625 1.421875 C7.98823499 1.77414597 9.56108243 2.15292854 11.12109375 2.578125 C23.69754212 5.71663262 41.62565753 6.03946407 53.62890625 0.8671875 C56 0 56 0 59 1 C51.68507122 4.07525577 44.75102771 5.68197156 36.87109375 6.60546875 C34.06281096 6.83472507 34.06281096 6.83472507 32 8 C29.51392772 7.8219996 27.09240843 7.57563193 24.625 7.25 C23.55330566 7.1106604 23.55330566 7.1106604 22.45996094 6.96850586 C5.53428551 4.64207593 5.53428551 4.64207593 0 0 Z " fill="#EFA91F" transform="translate(341,328)"/>
<path d="M0 0 C-0.639375 0.103125 -1.27875 0.20625 -1.9375 0.3125 C-2.618125 0.539375 -3.29875 0.76625 -4 1 C-4.33 1.99 -4.66 2.98 -5 4 C-6.63671875 5.39453125 -6.63671875 5.39453125 -8.6875 6.8125 C-11.42659342 8.77877778 -13.85849178 10.74931952 -16.1875 13.1875 C-19 16 -19 16 -21.75 17.625 C-24.30985788 19.1893576 -24.76463674 20.35279301 -26 23 C-26.99 23.33 -27.98 23.66 -29 24 C-27.51674693 19.04353942 -24.66020059 16.1585114 -21.0625 12.625 C-20.19939209 11.77107666 -20.19939209 11.77107666 -19.31884766 10.89990234 C-5.95597978 -1.98532659 -5.95597978 -1.98532659 0 0 Z " fill="#EFB919" transform="translate(160,648)"/>
<path d="M0 0 C4.29 0.33 8.58 0.66 13 1 C13 1.33 13 1.66 13 2 C24.75775845 4.18059318 36.29050247 2.68352211 48 1 C47.01 1.66 46.02 2.32 45 3 C44.38125 3.556875 43.7625 4.11375 43.125 4.6875 C41 6 41 6 38.94921875 5.5703125 C35.62180053 4.92686474 32.6327281 5.01532582 29.25878906 5.11523438 C18.87260069 5.40713637 9.89360748 4.09520681 0 1 C0 0.67 0 0.34 0 0 Z " fill="#DE9B1E" transform="translate(165,802)"/>
<path d="M0 0 C0.66 0 1.32 0 2 0 C3.47265625 1.94140625 3.47265625 1.94140625 5.0625 4.5625 C5.58972656 5.40941406 6.11695313 6.25632813 6.66015625 7.12890625 C9.23907161 12.65515345 9.15644592 18.4879305 9.1875 24.5 C9.20167969 25.7478125 9.21585938 26.995625 9.23046875 28.28125 C8.98647305 32.21826537 8.21599428 35.27031003 7 39 C5.86941366 35.60824097 6.26117102 34.41458801 7 31 C7.72985203 20.95049898 6.23192828 13.56133719 1 5 C0.3125 2.1875 0.3125 2.1875 0 0 Z " fill="#EFAF1E" transform="translate(565,236)"/>
<path d="M0 0 C7.02329356 6.22935602 9.96700022 18.15247584 12 27 C12.06225356 28.99903089 12.08065183 31.00162684 12 33 C9.42461929 30.76847121 8.55338491 29.21154158 7.9375 25.875 C7.78023437 25.08609375 7.62296875 24.2971875 7.4609375 23.484375 C7.15364583 21.828125 6.84635417 20.171875 6.5390625 18.515625 C6.38179687 17.72671875 6.22453125 16.9378125 6.0625 16.125 C5.92972656 15.40570312 5.79695312 14.68640625 5.66015625 13.9453125 C4.87811779 11.64084414 3.75687999 10.64321487 2 9 C1.26953125 6.73828125 1.26953125 6.73828125 0.8125 4.3125 C0.65394531 3.50425781 0.49539063 2.69601562 0.33203125 1.86328125 C0.22246094 1.24839844 0.11289062 0.63351562 0 0 Z " fill="#E4AA1C" transform="translate(890,673)"/>
<path d="M0 0 C2.82533724 2.66541966 4.95510896 5.25859443 6.9453125 8.58984375 C7.46480469 9.45673828 7.98429687 10.32363281 8.51953125 11.21679688 C9.04933594 12.11462891 9.57914062 13.01246094 10.125 13.9375 C10.66253906 14.83146484 11.20007813 15.72542969 11.75390625 16.64648438 C14.16597702 20.69768054 16.3305496 24.5786491 18 29 C12.27209972 24.90864266 9.39533181 20.08686935 6 14 C5.48179687 13.17113281 4.96359375 12.34226562 4.4296875 11.48828125 C3.04180957 9.07276694 2.1435725 6.83901703 1.3125 4.1875 C1.06113281 3.39730469 0.80976563 2.60710938 0.55078125 1.79296875 C0.36902344 1.20128906 0.18726563 0.60960937 0 0 Z " fill="#F0B21D" transform="translate(392,675)"/>
<path d="M0 0 C0.33 0.66 0.66 1.32 1 2 C0.17697718 4.40540923 -0.86472565 6.68033766 -1.89453125 9.00390625 C-5.39093468 18.48002438 -5.241245 27.62793924 -5.125 37.5625 C-5.11494923 39.06314506 -5.10582709 40.56379665 -5.09765625 42.06445312 C-5.07581091 45.70977281 -5.0413969 49.35484376 -5 53 C-5.33 53 -5.66 53 -6 53 C-8.92698354 37.12181401 -8.81408691 18.24496368 -3 3 C-1.36328125 1.0625 -1.36328125 1.0625 0 0 Z " fill="#E9A41D" transform="translate(158,690)"/>
<path d="M0 0 C3.08533175 3.08533175 4.1077888 7.03366798 5.68359375 11.0546875 C6.87794562 13.7269169 8.1419561 15.75734642 10 18 C9.67 18.66 9.34 19.32 9 20 C3.42276756 16.15790654 1.3614323 12.63261889 0 6 C-0.1875 2.4375 -0.1875 2.4375 0 0 Z " fill="#EFB21C" transform="translate(153,744)"/>
<path d="M0 0 C0.66 0.33 1.32 0.66 2 1 C0.8553125 2.0828125 0.8553125 2.0828125 -0.3125 3.1875 C-2.7535425 5.74207936 -4.28671564 7.9458844 -6 11 C-9.44923505 16.78581363 -9.44923505 16.78581363 -12.25 17.875 C-12.8275 17.91625 -13.405 17.9575 -14 18 C-10.81055874 11.07121382 -5.52237898 5.18768934 0 0 Z " fill="#EDAE1C" transform="translate(785,655)"/>
<path d="M0 0 C1.32 0.33 2.64 0.66 4 1 C0.04 4.96 -3.92 8.92 -8 13 C-8.33 11.68 -8.66 10.36 -9 9 C-7.26953125 6.60546875 -7.26953125 6.60546875 -4.8125 4.1875 C-4.01457031 3.37667969 -3.21664063 2.56585938 -2.39453125 1.73046875 C-1.60433594 1.15941406 -0.81414062 0.58835938 0 0 Z " fill="#F2B91B" transform="translate(483,196)"/>
<path d="M0 0 C0.33 0 0.66 0 1 0 C1.15855469 1.03898438 1.31710937 2.07796875 1.48046875 3.1484375 C2.73582157 10.81860642 4.1024351 17.38631238 8.109375 24.1796875 C8.55023437 25.08074219 8.55023437 25.08074219 9 26 C8.67 26.66 8.34 27.32 8 28 C7.01 27.67 6.02 27.34 5 27 C3.8671875 24.015625 3.8671875 24.015625 2.875 20.25 C2.54242187 19.01765625 2.20984375 17.7853125 1.8671875 16.515625 C0.45002294 10.77036325 -0.0999697 5.89821209 0 0 Z " fill="#E7A21D" transform="translate(791,733)"/>
<path d="M0 0 C0.99 0.33 1.98 0.66 3 1 C2.44570313 1.38671875 1.89140625 1.7734375 1.3203125 2.171875 C0.23363281 2.95304687 0.23363281 2.95304687 -0.875 3.75 C-1.59429687 4.26046875 -2.31359375 4.7709375 -3.0546875 5.296875 C-5.11849432 7.10374202 -5.86762809 8.54001964 -7 11 C-8.62746694 12.70496537 -10.28891311 14.37897032 -12 16 C-12.33 15.01 -12.66 14.02 -13 13 C-11.58791833 11.39179588 -10.17013964 9.78859292 -8.75 8.1875 C-7.96109375 7.29417969 -7.1721875 6.40085937 -6.359375 5.48046875 C-4.31781457 3.33412625 -2.54984362 1.5014575 0 0 Z " fill="#ECAE1C" transform="translate(320,355)"/>
<path d="M0 0 C3.70350652 1.31941502 6.49138044 2.92878651 9.5625 5.375 C10.30628906 5.96023438 11.05007812 6.54546875 11.81640625 7.1484375 C13.99830346 8.99856143 16.00754579 10.94881131 18 13 C17.67 13.66 17.34 14.32 17 15 C16.5875 14.54109375 16.175 14.0821875 15.75 13.609375 C12.02828194 9.65504956 8.75931194 7.03760378 3.69921875 5.01953125 C1.5167259 3.71003554 0.94551592 2.31819387 0 0 Z " fill="#E9AA1C" transform="translate(225,649)"/>
<path d="M0 0 C9.9 0 19.8 0 30 0 C29.67 0.66 29.34 1.32 29 2 C23.70119618 3.13643596 18.72783689 3.00329236 13.375 2.625 C12.26898437 2.55925781 12.26898437 2.55925781 11.140625 2.4921875 C7.35308711 2.24783022 3.69837249 1.86246631 0 1 C0 0.67 0 0.34 0 0 Z " fill="#DA951E" transform="translate(815,805)"/>
<path d="M0 0 C1.25955231 3.77865693 0.48087189 5.03411786 -0.9375 8.6875 C-1.31777344 9.68136719 -1.69804688 10.67523437 -2.08984375 11.69921875 C-2.39019531 12.45847656 -2.69054687 13.21773437 -3 14 C-3.66 14 -4.32 14 -5 14 C-5.33 15.98 -5.66 17.96 -6 20 C-7.07980476 16.78249481 -6.97733906 15.17877268 -5.56640625 12.109375 C-5.24736328 11.40039062 -4.92832031 10.69140625 -4.59960938 9.9609375 C-4.25736328 9.23132813 -3.91511719 8.50171875 -3.5625 7.75 C-3.22412109 7.00492188 -2.88574219 6.25984375 -2.53710938 5.4921875 C-1.70173696 3.65672135 -0.85222033 1.82770445 0 0 Z " fill="#EEB11E" transform="translate(768,676)"/>
<path d="M0 0 C-2.37094293 2.65171248 -4.83568087 4.1490052 -8 5.75 C-9.299375 6.42289063 -9.299375 6.42289063 -10.625 7.109375 C-13 8 -13 8 -16 7 C-14.68 6.67 -13.36 6.34 -12 6 C-12 5.34 -12 4.68 -12 4 C-4.71428571 -0.57142857 -4.71428571 -0.57142857 0 0 Z " fill="#E7AA1A" transform="translate(869,795)"/>
<path d="M0 0 C5.79355528 1.32768975 10.0999919 3.66544904 15 7 C13 8 13 8 9.9609375 7.00390625 C8.77757812 6.52824219 7.59421875 6.05257812 6.375 5.5625 C5.18648438 5.08941406 3.99796875 4.61632812 2.7734375 4.12890625 C1.85820312 3.75636719 0.94296875 3.38382813 0 3 C0 2.01 0 1.02 0 0 Z " fill="#EEB31C" transform="translate(397,193)"/>
<path d="M0 0 C0.33 0.66 0.66 1.32 1 2 C0.109375 3.83984375 0.109375 3.83984375 -1.25 5.9375 C-1.68828125 6.62714844 -2.1265625 7.31679688 -2.578125 8.02734375 C-3.92063972 9.88989851 -5.3288332 11.43205233 -7 13 C-7.99 12.67 -8.98 12.34 -10 12 C-7.49778389 8.782865 -4.87838189 5.87838189 -2 3 C-1.34 2.01 -0.68 1.02 0 0 Z " fill="#F1B51D" transform="translate(568,279)"/>
<path d="M0 0 C3.96873434 1.32291145 4.29905037 2.91149738 6.1875 6.5625 C6.71730469 7.57441406 7.24710938 8.58632813 7.79296875 9.62890625 C8.19128906 10.41136719 8.58960938 11.19382812 9 12 C4.38597864 10.53085887 4.38597864 10.53085887 2.63671875 8.125 C2.32347656 7.42375 2.01023437 6.7225 1.6875 6 C1.36136719 5.29875 1.03523438 4.5975 0.69921875 3.875 C0 2 0 2 0 0 Z " fill="#E9B21A" transform="translate(124,763)"/>
<path d="M0 0 C2.34917898 2.15341406 3.82443004 4.21667937 5.25 7.0625 C5.60578125 7.75472656 5.9615625 8.44695313 6.328125 9.16015625 C6.54984375 9.76730469 6.7715625 10.37445312 7 11 C6.67 11.66 6.34 12.32 6 13 C4.80008401 11.4050992 3.61538682 9.79873853 2.4375 8.1875 C1.44556641 6.84751953 1.44556641 6.84751953 0.43359375 5.48046875 C-0.03949219 4.66191406 -0.51257813 3.84335937 -1 3 C-0.67 2.01 -0.34 1.02 0 0 Z " fill="#EAAD1C" transform="translate(769,769)"/>
<path d="M0 0 C2 3 2 3 2 5 C2.99 5.33 3.98 5.66 5 6 C6.05226728 7.97300116 7.04788888 9.97676387 8 12 C8.96534522 13.35863401 9.95277149 14.70343137 11 16 C7.21731979 14.51036045 5.54510915 12.4303495 3.25 9.125 C2.63640625 8.26132812 2.0228125 7.39765625 1.390625 6.5078125 C0 4 0 4 0 0 Z " fill="#E2A31D" transform="translate(306,524)"/>
<path d="M0 0 C0.99 0.66 1.98 1.32 3 2 C3 2.99 3 3.98 3 5 C1.948125 4.5359375 1.948125 4.5359375 0.875 4.0625 C-2.09090132 2.96640603 -4.88389122 2.48472803 -8 2 C-8.66 1.67 -9.32 1.34 -10 1 C-6.41783669 -1.3421837 -4.07516128 -1.04046671 0 0 Z " fill="#E3A91C" transform="translate(732,356)"/>
<path d="M0 0 C0.66 0.33 1.32 0.66 2 1 C-0.35684596 4.34920216 -3.06799526 7.14723863 -6 10 C-6.66 9.34 -7.32 8.68 -8 8 C-5.33333333 5.33333333 -2.66666667 2.66666667 0 0 Z " fill="#E9AF1B" transform="translate(327,202)"/>
<path d="M0 0 C0.33 0.99 0.66 1.98 1 3 C0.21625 3.763125 -0.5675 4.52625 -1.375 5.3125 C-4.07257717 7.90891805 -4.07257717 7.90891805 -6 11 C-6.99 11.33 -7.98 11.66 -9 12 C-7.54718935 6.67302761 -3.91888622 3.63597198 0 0 Z " fill="#E1A41B" transform="translate(140,660)"/>
<path d="M0 0 C0.99 0.33 1.98 0.66 3 1 C2.360625 1.103125 1.72125 1.20625 1.0625 1.3125 C0.381875 1.539375 -0.29875 1.76625 -1 2 C-1.33 2.99 -1.66 3.98 -2 5 C-5 7 -5 7 -7.1875 6.625 C-7.785625 6.41875 -8.38375 6.2125 -9 6 C-7.57140593 4.96674014 -6.13177617 3.94872366 -4.6875 2.9375 C-3.88699219 2.36902344 -3.08648437 1.80054688 -2.26171875 1.21484375 C-1.51535156 0.81394531 -0.76898438 0.41304687 0 0 Z " fill="#E3A71D" transform="translate(157,647)"/>
<path d="M0 0 C0.66 0 1.32 0 2 0 C3.5078125 1.96875 3.5078125 1.96875 5.125 4.5 C5.66382813 5.3353125 6.20265625 6.170625 6.7578125 7.03125 C7.16773438 7.6809375 7.57765625 8.330625 8 9 C4.23511958 7.27845212 1.84936103 5.00765886 -1 2 C-0.67 1.34 -0.34 0.68 0 0 Z " fill="#E6AD1A" transform="translate(140,784)"/>
<path d="M0 0 C0.75 1.5625 0.75 1.5625 1 4 C-0.13084437 6.50286409 -1.52139516 8.67007722 -3 11 C-4.125 7.25 -4.125 7.25 -3 5 C-2.34 5 -1.68 5 -1 5 C-0.67 3.35 -0.34 1.7 0 0 Z " fill="#ECAF1D" transform="translate(612,296)"/>
<path d="M0 0 C4.21912747 0.4794463 6.79663178 1.16625119 10 4 C9.01 4.33 8.02 4.66 7 5 C7 4.34 7 3.68 7 3 C4.69 3 2.38 3 0 3 C0 2.01 0 1.02 0 0 Z " fill="#E9AE1B" transform="translate(564,181)"/>
<path d="M0 0 C5.53846154 0.61538462 5.53846154 0.61538462 7.875 2.5625 C8.431875 3.2740625 8.431875 3.2740625 9 4 C8.01 4.495 8.01 4.495 7 5 C4.5249829 3.88568235 2.32116581 2.41849022 0 1 C0 0.67 0 0.34 0 0 Z " fill="#ECB11B" transform="translate(791,795)"/>
<path d="M0 0 C1.39195915 4.17587745 -0.17676781 6.13474776 -2 10 C-3.09658936 6.71023192 -2.79953138 5.28696233 -2 2 C-1.34 2 -0.68 2 0 2 C0 1.34 0 0.68 0 0 Z " fill="#EAAC1C" transform="translate(617,286)"/>
<path d="M0 0 C5.57142857 5.14285714 5.57142857 5.14285714 6 9 C5.34 8.67 4.68 8.34 4 8 C4 7.34 4 6.68 4 6 C2.68 5.34 1.36 4.68 0 4 C0 2.68 0 1.36 0 0 Z " fill="#EBAE1D" transform="translate(428,216)"/>
<path d="M0 0 C2 0 2 0 4.5625 2.25 C6.76715929 4.73730791 7.64403955 5.79635595 8 9 C7.34 9 6.68 9 6 9 C4.4921875 7.28515625 4.4921875 7.28515625 2.875 5.0625 C2.33617187 4.33160156 1.79734375 3.60070312 1.2421875 2.84765625 C0 1 0 1 0 0 Z " fill="#DC9F1B" transform="translate(131,776)"/>
<path d="M0 0 C0.66 0 1.32 0 2 0 C3.6875 2.375 3.6875 2.375 5 5 C4.67 5.66 4.34 6.32 4 7 C3.01 6.67 2.02 6.34 1 6 C0.67 4.02 0.34 2.04 0 0 Z " fill="#EFB31C" transform="translate(795,754)"/>
<path d="M0 0 C0 0.66 0 1.32 0 2 C-2.8125 3.125 -2.8125 3.125 -6 4 C-6.99 3.34 -7.98 2.68 -9 2 C-5.62902617 0.50178941 -3.79557881 0 0 0 Z " fill="#EEB81B" transform="translate(169,644)"/>
<path d="M0 0 C1.98 0.66 3.96 1.32 6 2 C6 2.99 6 3.98 6 5 C4.02 4.34 2.04 3.68 0 3 C0 2.01 0 1.02 0 0 Z " fill="#F3B41E" transform="translate(655,499)"/>
<path d="M0 0 C2.79872437 2.52788007 4.45773019 4.20411134 5 8 C4.01 8 3.02 8 2 8 C1.34 5.36 0.68 2.72 0 0 Z " fill="#EDAD1C" transform="translate(378,653)"/>
<path d="M0 0 C0.66 0.66 1.32 1.32 2 2 C1.625 4.125 1.625 4.125 1 6 C0 3 0 3 0 0 Z " fill="#F9B61B" transform="translate(864,698)"/>
<path d="M0 0 C0.33 0 0.66 0 1 0 C1 1.98 1 3.96 1 6 C0.67 6 0.34 6 0 6 C0 4.02 0 2.04 0 0 Z " fill="#FDBD1B" transform="translate(432,696)"/>
<path d="M0 0 C0.33 0 0.66 0 1 0 C1 1.65 1 3.3 1 5 C0.67 5 0.34 5 0 5 C0 3.35 0 1.7 0 0 Z " fill="#FBBC1A" transform="translate(338,739)"/>
<path d="M0 0 C1.65 0 3.3 0 5 0 C5 0.33 5 0.66 5 1 C3.35 1 1.7 1 0 1 C0 0.67 0 0.34 0 0 Z " fill="#FDBA1D" transform="translate(555,343)"/>
<path d="M0 0 C1 4 1 4 1 4 Z " fill="#FBBD1A" transform="translate(338,732)"/>
<path d="M0 0 C1 4 1 4 1 4 Z " fill="#FBBE1B" transform="translate(432,667)"/>
<path d="M0 0 C0.66 0.66 1.32 1.32 2 2 C1.34 2 0.68 2 0 2 C0 1.34 0 0.68 0 0 Z " fill="#F3B31B" transform="translate(418,778)"/>
<path d="" fill="#F9BB18" transform="translate(0,0)"/>
<path d="" fill="#F7B81B" transform="translate(0,0)"/>
<path d="" fill="#FABC1A" transform="translate(0,0)"/>
<path d="" fill="#FABA1D" transform="translate(0,0)"/>
<path d="" fill="#F9BA1A" transform="translate(0,0)"/>
<path d="" fill="#FCBE1B" transform="translate(0,0)"/>
<path d="M0 0 C0.66 0 1.32 0 2 0 C1.67 0.66 1.34 1.32 1 2 C0.67 1.34 0.34 0.68 0 0 Z " fill="#FABA1E" transform="translate(627,702)"/>
<path d="M0 0 C3 1 3 1 3 1 Z " fill="#F5B71F" transform="translate(208,679)"/>
<path d="" fill="#F9BC1A" transform="translate(0,0)"/>
<path d="M0 0 C0.99 0.495 0.99 0.495 2 1 C1.01 1.495 1.01 1.495 0 2 C0 1.34 0 0.68 0 0 Z " fill="#F8B71B" transform="translate(198,674)"/>
<path d="" fill="#F9BA1D" transform="translate(0,0)"/>
<path d="" fill="#F7BA1B" transform="translate(0,0)"/>
<path d="M0 0 C3 1 3 1 3 1 Z " fill="#F2B21C" transform="translate(334,547)"/>
<path d="M0 0 C0.66 0.66 1.32 1.32 2 2 C1.34 2 0.68 2 0 2 C0 1.34 0 0.68 0 0 Z " fill="#F0B41D" transform="translate(696,526)"/>
<path d="" fill="#EBAF1C" transform="translate(0,0)"/>
<path d="M0 0 C0.66 0.66 1.32 1.32 2 2 C1.34 2 0.68 2 0 2 C0 1.34 0 0.68 0 0 Z " fill="#F7BA20" transform="translate(496,334)"/>
<path d="M0 0 C3 1 3 1 3 1 Z " fill="#FCB91C" transform="translate(379,335)"/>
<path d="M0 0 C3 1 3 1 3 1 Z " fill="#F9B71B" transform="translate(405,327)"/>
<path d="M0 0 C3 1 3 1 3 1 Z " fill="#F9B91C" transform="translate(418,318)"/>
<path d="M0 0 C0.66 0 1.32 0 2 0 C1.67 0.66 1.34 1.32 1 2 C0.67 1.34 0.34 0.68 0 0 Z " fill="#FABC1D" transform="translate(473,317)"/>
<path d="" fill="#E7AA1F" transform="translate(0,0)"/>
<path d="" fill="#F9BC1D" transform="translate(0,0)"/>
<path d="" fill="#E7A91E" transform="translate(0,0)"/>
<path d="" fill="#FBBB1E" transform="translate(0,0)"/>
<path d="M0 0 C0.66 0.66 1.32 1.32 2 2 C1.34 2 0.68 2 0 2 C0 1.34 0 0.68 0 0 Z " fill="#F5B81E" transform="translate(552,230)"/>
<path d="M0 0 C0.66 0 1.32 0 2 0 C1.67 0.66 1.34 1.32 1 2 C0.67 1.34 0.34 0.68 0 0 Z " fill="#FBB91E" transform="translate(524,230)"/>
<path d="M0 0 C2 1 2 1 2 1 Z " fill="#DB9C18" transform="translate(846,806)"/>
<path d="M0 0 C2 1 2 1 2 1 Z " fill="#DEA019" transform="translate(172,806)"/>
<path d="" fill="#DB9E18" transform="translate(0,0)"/>
<path d="" fill="#E7A719" transform="translate(0,0)"/>
<path d="" fill="#EEAE1A" transform="translate(0,0)"/>
<path d="" fill="#F4B519" transform="translate(0,0)"/>
<path d="" fill="#F0B21C" transform="translate(0,0)"/>
<path d="" fill="#F4B51C" transform="translate(0,0)"/>
<path d="" fill="#F6B818" transform="translate(0,0)"/>
<path d="" fill="#F9BB1A" transform="translate(0,0)"/>
<path d="M0 0 C2 1 2 1 2 1 Z " fill="#F6B51B" transform="translate(849,768)"/>
<path d="M0 0 C2 1 2 1 2 1 Z " fill="#F7B71C" transform="translate(209,768)"/>
<path d="M0 0 C2 1 2 1 2 1 Z " fill="#F7B61D" transform="translate(171,768)"/>
<path d="" fill="#F5B31B" transform="translate(0,0)"/>
<path d="" fill="#F6B51B" transform="translate(0,0)"/>
<path d="M0 0 C2 1 2 1 2 1 Z " fill="#F6B61B" transform="translate(405,759)"/>
<path d="" fill="#F3B71B" transform="translate(0,0)"/>
<path d="" fill="#F6B61B" transform="translate(0,0)"/>
<path d="" fill="#F6B81B" transform="translate(0,0)"/>
<path d="" fill="#F7B91C" transform="translate(0,0)"/>
<path d="" fill="#DFA01B" transform="translate(0,0)"/>
<path d="" fill="#FAB71C" transform="translate(0,0)"/>
<path d="" fill="#F8B71A" transform="translate(0,0)"/>
<path d="" fill="#FCBC1B" transform="translate(0,0)"/>
<path d="" fill="#FBBD19" transform="translate(0,0)"/>
<path d="" fill="#FABD1A" transform="translate(0,0)"/>
<path d="M0 0 C2 1 2 1 2 1 Z " fill="#F9B91D" transform="translate(634,723)"/>
<path d="" fill="#FBBC1A" transform="translate(0,0)"/>
<path d="" fill="#FDBE1C" transform="translate(0,0)"/>
<path d="" fill="#FCBD1D" transform="translate(0,0)"/>
<path d="" fill="#FDBC1D" transform="translate(0,0)"/>
<path d="" fill="#FCBF1A" transform="translate(0,0)"/>
<path d="" fill="#F9B81B" transform="translate(0,0)"/>
<path d="" fill="#FABC1B" transform="translate(0,0)"/>
<path d="" fill="#F9B81A" transform="translate(0,0)"/>
<path d="" fill="#F7B71C" transform="translate(0,0)"/>
<path d="" fill="#F8B71E" transform="translate(0,0)"/>
<path d="" fill="#F9B81E" transform="translate(0,0)"/>
<path d="" fill="#E2A71B" transform="translate(0,0)"/>
<path d="" fill="#FABD1A" transform="translate(0,0)"/>
<path d="M0 0 C2 1 2 1 2 1 Z " fill="#FABB1E" transform="translate(626,699)"/>
<path d="" fill="#FEBC1B" transform="translate(0,0)"/>
<path d="" fill="#FAB91C" transform="translate(0,0)"/>
<path d="" fill="#FBBD19" transform="translate(0,0)"/>
<path d="" fill="#F8B71C" transform="translate(0,0)"/>
<path d="" fill="#FBB91B" transform="translate(0,0)"/>
<path d="" fill="#FDBD1D" transform="translate(0,0)"/>
<path d="" fill="#F9B91D" transform="translate(0,0)"/>
<path d="" fill="#FABC1B" transform="translate(0,0)"/>
<path d="" fill="#FCBD1B" transform="translate(0,0)"/>
<path d="" fill="#F5B41F" transform="translate(0,0)"/>
<path d="" fill="#FDBD1C" transform="translate(0,0)"/>
<path d="" fill="#F9BC1A" transform="translate(0,0)"/>
<path d="" fill="#FBBB1B" transform="translate(0,0)"/>
<path d="M0 0 C2 1 2 1 2 1 Z " fill="#F7B71B" transform="translate(771,667)"/>
<path d="" fill="#F5B41E" transform="translate(0,0)"/>
<path d="M0 0 C2 1 2 1 2 1 Z " fill="#EFAC1E" transform="translate(792,648)"/>
<path d="M0 0 C2 1 2 1 2 1 Z " fill="#E5A519" transform="translate(845,640)"/>
<path d="M0 0 C2 1 2 1 2 1 Z " fill="#FABA1B" transform="translate(502,547)"/>
<path d="" fill="#F6B61E" transform="translate(0,0)"/>
<path d="" fill="#E5A91D" transform="translate(0,0)"/>
<path d="" fill="#E8AD1B" transform="translate(0,0)"/>
<path d="" fill="#E9AE1D" transform="translate(0,0)"/>
<path d="" fill="#EBAF1E" transform="translate(0,0)"/>
<path d="" fill="#ECB01C" transform="translate(0,0)"/>
<path d="" fill="#FDBF1E" transform="translate(0,0)"/>
<path d="M0 0 C2 1 2 1 2 1 Z " fill="#EDAB1E" transform="translate(712,360)"/>
<path d="M0 0 C2 1 2 1 2 1 Z " fill="#FCBB1E" transform="translate(505,339)"/>
<path d="M0 0 C2 1 2 1 2 1 Z " fill="#FAB91B" transform="translate(580,334)"/>
<path d="M0 0 C2 1 2 1 2 1 Z " fill="#FBBB1C" transform="translate(387,334)"/>
<path d="" fill="#F8B71D" transform="translate(0,0)"/>
<path d="M0 0 C2 1 2 1 2 1 Z " fill="#FABC1A" transform="translate(555,289)"/>
<path d="" fill="#F8BB1D" transform="translate(0,0)"/>
<path d="" fill="#EDAD1C" transform="translate(0,0)"/>
<path d="M0 0 C2 1 2 1 2 1 Z " fill="#FAB91B" transform="translate(380,285)"/>
<path d="" fill="#FCBA1C" transform="translate(0,0)"/>
<path d="" fill="#FCBE1D" transform="translate(0,0)"/>
<path d="" fill="#FBBB1B" transform="translate(0,0)"/>
<path d="" fill="#FABD1D" transform="translate(0,0)"/>
<path d="" fill="#F4B721" transform="translate(0,0)"/>
<path d="M0 0 C2 1 2 1 2 1 Z " fill="#F6B421" transform="translate(384,239)"/>
<path d="M0 0 C2 1 2 1 2 1 Z " fill="#F9B81C" transform="translate(357,239)"/>
<path d="" fill="#FBBA1C" transform="translate(0,0)"/>
<path d="M0 0 C2 1 2 1 2 1 Z " fill="#FABA1B" transform="translate(382,238)"/>
<path d="M0 0 C2 1 2 1 2 1 Z " fill="#EBAA1E" transform="translate(497,184)"/>
<path d="M0 0 C2 1 2 1 2 1 Z " fill="#EAAC1D" transform="translate(521,176)"/>
<path d="" fill="#060100" transform="translate(0,0)"/>
<path d="" fill="#090500" transform="translate(0,0)"/>
<path d="" fill="#040100" transform="translate(0,0)"/>
<path d="" fill="#0C0700" transform="translate(0,0)"/>
<path d="" fill="#130B00" transform="translate(0,0)"/>
<path d="" fill="#211500" transform="translate(0,0)"/>
<path d="" fill="#150D00" transform="translate(0,0)"/>
<path d="" fill="#231500" transform="translate(0,0)"/>
<path d="" fill="#271800" transform="translate(0,0)"/>
<path d="" fill="#261A00" transform="translate(0,0)"/>
<path d="" fill="#120A00" transform="translate(0,0)"/>
<path d="" fill="#231600" transform="translate(0,0)"/>
<path d="" fill="#DDA217" transform="translate(0,0)"/>
<path d="" fill="#E3A418" transform="translate(0,0)"/>
<path d="" fill="#DFA418" transform="translate(0,0)"/>
<path d="" fill="#E3A217" transform="translate(0,0)"/>
<path d="" fill="#E4A317" transform="translate(0,0)"/>
<path d="" fill="#E4A51B" transform="translate(0,0)"/>
<path d="" fill="#DC9F17" transform="translate(0,0)"/>
<path d="" fill="#E5AA19" transform="translate(0,0)"/>
<path d="" fill="#E3A517" transform="translate(0,0)"/>
<path d="" fill="#E3A418" transform="translate(0,0)"/>
<path d="" fill="#E1A318" transform="translate(0,0)"/>
<path d="" fill="#E1A718" transform="translate(0,0)"/>
<path d="" fill="#E2A418" transform="translate(0,0)"/>
<path d="" fill="#E6A71D" transform="translate(0,0)"/>
<path d="" fill="#DFA217" transform="translate(0,0)"/>
<path d="" fill="#E0A218" transform="translate(0,0)"/>
<path d="" fill="#DDA216" transform="translate(0,0)"/>
<path d="" fill="#EDAF19" transform="translate(0,0)"/>
<path d="" fill="#EAAB19" transform="translate(0,0)"/>
<path d="" fill="#DC9D18" transform="translate(0,0)"/>
<path d="" fill="#E8A91A" transform="translate(0,0)"/>
<path d="" fill="#DC9E18" transform="translate(0,0)"/>
<path d="" fill="#DB9B19" transform="translate(0,0)"/>
<path d="" fill="#E9AC17" transform="translate(0,0)"/>
<path d="" fill="#EDAD1A" transform="translate(0,0)"/>
<path d="" fill="#EDAD1B" transform="translate(0,0)"/>
<path d="" fill="#EAAA1A" transform="translate(0,0)"/>
<path d="" fill="#F3B31A" transform="translate(0,0)"/>
<path d="" fill="#F0B31A" transform="translate(0,0)"/>
<path d="" fill="#EAAB1C" transform="translate(0,0)"/>
<path d="" fill="#EFAF1A" transform="translate(0,0)"/>
<path d="" fill="#F3B119" transform="translate(0,0)"/>
<path d="" fill="#F3B21B" transform="translate(0,0)"/>
<path d="" fill="#DD9D18" transform="translate(0,0)"/>
<path d="" fill="#EBAC19" transform="translate(0,0)"/>
<path d="" fill="#F1B01B" transform="translate(0,0)"/>
<path d="" fill="#DC9F1B" transform="translate(0,0)"/>
<path d="" fill="#F0B11A" transform="translate(0,0)"/>
<path d="" fill="#EEAF19" transform="translate(0,0)"/>
<path d="" fill="#DEA216" transform="translate(0,0)"/>
<path d="" fill="#F0B21B" transform="translate(0,0)"/>
<path d="" fill="#F8BB1B" transform="translate(0,0)"/>
<path d="" fill="#F1B41A" transform="translate(0,0)"/>
<path d="" fill="#EFAF1B" transform="translate(0,0)"/>
<path d="" fill="#EEAE1C" transform="translate(0,0)"/>
<path d="" fill="#F4B51A" transform="translate(0,0)"/>
<path d="" fill="#F6B718" transform="translate(0,0)"/>
<path d="" fill="#E2A118" transform="translate(0,0)"/>
<path d="" fill="#FABA18" transform="translate(0,0)"/>
<path d="" fill="#FABA1A" transform="translate(0,0)"/>
<path d="" fill="#F9BC19" transform="translate(0,0)"/>
<path d="" fill="#F7B91B" transform="translate(0,0)"/>
<path d="" fill="#FAB91B" transform="translate(0,0)"/>
<path d="" fill="#F2AF1C" transform="translate(0,0)"/>
<path d="" fill="#FBBC1B" transform="translate(0,0)"/>
<path d="" fill="#F4B41B" transform="translate(0,0)"/>
<path d="" fill="#FABA1B" transform="translate(0,0)"/>
<path d="" fill="#F8B71A" transform="translate(0,0)"/>
<path d="" fill="#DD9D18" transform="translate(0,0)"/>
<path d="" fill="#F7B71A" transform="translate(0,0)"/>
<path d="" fill="#F8B719" transform="translate(0,0)"/>
<path d="" fill="#F1AE1B" transform="translate(0,0)"/>
<path d="" fill="#F9BA19" transform="translate(0,0)"/>
<path d="" fill="#F4B41C" transform="translate(0,0)"/>
<path d="" fill="#F7B71A" transform="translate(0,0)"/>
<path d="" fill="#F6B51C" transform="translate(0,0)"/>
<path d="" fill="#F3B51B" transform="translate(0,0)"/>
<path d="" fill="#FABB1A" transform="translate(0,0)"/>
<path d="" fill="#E1A218" transform="translate(0,0)"/>
<path d="" fill="#FAB71C" transform="translate(0,0)"/>
<path d="" fill="#F7B41A" transform="translate(0,0)"/>
<path d="" fill="#F9B91C" transform="translate(0,0)"/>
<path d="" fill="#F4B31C" transform="translate(0,0)"/>
<path d="" fill="#FBBB1B" transform="translate(0,0)"/>
<path d="" fill="#FABA1C" transform="translate(0,0)"/>
<path d="" fill="#DDA01A" transform="translate(0,0)"/>
<path d="" fill="#F6B51D" transform="translate(0,0)"/>
<path d="" fill="#FCC01A" transform="translate(0,0)"/>
<path d="" fill="#FBB619" transform="translate(0,0)"/>
<path d="" fill="#F7B91C" transform="translate(0,0)"/>
<path d="" fill="#F9B91C" transform="translate(0,0)"/>
<path d="" fill="#DA9B17" transform="translate(0,0)"/>
<path d="" fill="#F7B721" transform="translate(0,0)"/>
<path d="" fill="#FABD1C" transform="translate(0,0)"/>
<path d="" fill="#F6B71C" transform="translate(0,0)"/>
<path d="" fill="#F4B61D" transform="translate(0,0)"/>
<path d="" fill="#F7BB20" transform="translate(0,0)"/>
<path d="" fill="#FBBB1A" transform="translate(0,0)"/>
<path d="" fill="#FABA1F" transform="translate(0,0)"/>
<path d="" fill="#F9BA19" transform="translate(0,0)"/>
<path d="" fill="#FCBB1D" transform="translate(0,0)"/>
<path d="" fill="#F9BE1A" transform="translate(0,0)"/>
<path d="" fill="#FBBA1C" transform="translate(0,0)"/>
<path d="" fill="#FAB81C" transform="translate(0,0)"/>
<path d="" fill="#F8B919" transform="translate(0,0)"/>
<path d="" fill="#FAB81A" transform="translate(0,0)"/>
<path d="" fill="#F9B71A" transform="translate(0,0)"/>
<path d="" fill="#F9B81C" transform="translate(0,0)"/>
<path d="" fill="#FCBC1C" transform="translate(0,0)"/>
<path d="" fill="#F8B91D" transform="translate(0,0)"/>
<path d="" fill="#FBBC1C" transform="translate(0,0)"/>
<path d="" fill="#FCBC1A" transform="translate(0,0)"/>
<path d="" fill="#FAB91C" transform="translate(0,0)"/>
<path d="" fill="#F7B919" transform="translate(0,0)"/>
<path d="" fill="#F6B71B" transform="translate(0,0)"/>
<path d="" fill="#F8B71A" transform="translate(0,0)"/>
<path d="" fill="#FCBC1B" transform="translate(0,0)"/>
<path d="" fill="#F9BA1C" transform="translate(0,0)"/>
<path d="" fill="#FDBE19" transform="translate(0,0)"/>
<path d="" fill="#FDBB1E" transform="translate(0,0)"/>
<path d="" fill="#F9B91A" transform="translate(0,0)"/>
<path d="" fill="#FCBD1A" transform="translate(0,0)"/>
<path d="" fill="#FCBD1A" transform="translate(0,0)"/>
<path d="" fill="#F6BA1D" transform="translate(0,0)"/>
<path d="" fill="#FCBC21" transform="translate(0,0)"/>
<path d="" fill="#FCBA1C" transform="translate(0,0)"/>
<path d="" fill="#FBB91C" transform="translate(0,0)"/>
<path d="" fill="#F6B81D" transform="translate(0,0)"/>
<path d="" fill="#E3A617" transform="translate(0,0)"/>
<path d="" fill="#F8B91A" transform="translate(0,0)"/>
<path d="" fill="#F9B91E" transform="translate(0,0)"/>
<path d="" fill="#F9BF1C" transform="translate(0,0)"/>
<path d="" fill="#F9B91B" transform="translate(0,0)"/>
<path d="" fill="#F9B81C" transform="translate(0,0)"/>
<path d="" fill="#FBBB1D" transform="translate(0,0)"/>
<path d="" fill="#FABB1D" transform="translate(0,0)"/>
<path d="" fill="#FDBB1D" transform="translate(0,0)"/>
<path d="" fill="#FEC11B" transform="translate(0,0)"/>
<path d="" fill="#FCBE1B" transform="translate(0,0)"/>
<path d="" fill="#FDBD1A" transform="translate(0,0)"/>
<path d="" fill="#FAB91B" transform="translate(0,0)"/>
<path d="" fill="#FCBC1D" transform="translate(0,0)"/>
<path d="" fill="#F7B61C" transform="translate(0,0)"/>
<path d="" fill="#FDBD1D" transform="translate(0,0)"/>
<path d="" fill="#FBBC19" transform="translate(0,0)"/>
<path d="" fill="#F7B91A" transform="translate(0,0)"/>
<path d="" fill="#F9B91C" transform="translate(0,0)"/>
<path d="" fill="#F4B41F" transform="translate(0,0)"/>
<path d="" fill="#FCBC1A" transform="translate(0,0)"/>
<path d="" fill="#FBBE1C" transform="translate(0,0)"/>
<path d="" fill="#FFC01D" transform="translate(0,0)"/>
<path d="" fill="#FDBD1A" transform="translate(0,0)"/>
<path d="" fill="#F9B81A" transform="translate(0,0)"/>
<path d="" fill="#FABD1C" transform="translate(0,0)"/>
<path d="" fill="#FABB1C" transform="translate(0,0)"/>
<path d="" fill="#FAB81E" transform="translate(0,0)"/>
<path d="" fill="#FEBF1D" transform="translate(0,0)"/>
<path d="" fill="#F6B51E" transform="translate(0,0)"/>
<path d="" fill="#F9B81C" transform="translate(0,0)"/>
<path d="" fill="#FCBD1E" transform="translate(0,0)"/>
<path d="" fill="#FABD1A" transform="translate(0,0)"/>
<path d="" fill="#F9B91D" transform="translate(0,0)"/>
<path d="" fill="#FABA19" transform="translate(0,0)"/>
<path d="" fill="#FCBC1C" transform="translate(0,0)"/>
<path d="" fill="#FCBD1B" transform="translate(0,0)"/>
<path d="" fill="#FBBB1F" transform="translate(0,0)"/>
<path d="" fill="#E4A71C" transform="translate(0,0)"/>
<path d="" fill="#F9B71D" transform="translate(0,0)"/>
<path d="" fill="#F9B81D" transform="translate(0,0)"/>
<path d="" fill="#F9BD1B" transform="translate(0,0)"/>
<path d="" fill="#FBBC1C" transform="translate(0,0)"/>
<path d="" fill="#FCBD1E" transform="translate(0,0)"/>
<path d="" fill="#FDBD1B" transform="translate(0,0)"/>
<path d="" fill="#FBB91C" transform="translate(0,0)"/>
<path d="" fill="#FDBD1C" transform="translate(0,0)"/>
<path d="" fill="#FCBD1A" transform="translate(0,0)"/>
<path d="" fill="#F8B91B" transform="translate(0,0)"/>
<path d="" fill="#FCBB19" transform="translate(0,0)"/>
<path d="" fill="#FCC01C" transform="translate(0,0)"/>
<path d="" fill="#FDBF1B" transform="translate(0,0)"/>
<path d="" fill="#FEC01D" transform="translate(0,0)"/>
<path d="" fill="#FEC01C" transform="translate(0,0)"/>
<path d="" fill="#F9BD19" transform="translate(0,0)"/>
<path d="" fill="#FABD1B" transform="translate(0,0)"/>
<path d="" fill="#F8B91D" transform="translate(0,0)"/>
<path d="" fill="#E0A01B" transform="translate(0,0)"/>
<path d="" fill="#F5B31E" transform="translate(0,0)"/>
<path d="" fill="#F8B71B" transform="translate(0,0)"/>
<path d="" fill="#F6B71C" transform="translate(0,0)"/>
<path d="" fill="#FCBC1E" transform="translate(0,0)"/>
<path d="" fill="#E1A119" transform="translate(0,0)"/>
<path d="" fill="#FBBB19" transform="translate(0,0)"/>
<path d="" fill="#F9B81C" transform="translate(0,0)"/>
<path d="" fill="#FCBA1D" transform="translate(0,0)"/>
<path d="" fill="#F6B81C" transform="translate(0,0)"/>
<path d="" fill="#F9B81C" transform="translate(0,0)"/>
<path d="" fill="#F7B61C" transform="translate(0,0)"/>
<path d="" fill="#FDBD1B" transform="translate(0,0)"/>
<path d="" fill="#F7BB1D" transform="translate(0,0)"/>
<path d="" fill="#FABC1A" transform="translate(0,0)"/>
<path d="" fill="#F7B61D" transform="translate(0,0)"/>
<path d="" fill="#F5B61E" transform="translate(0,0)"/>
<path d="" fill="#FAB91D" transform="translate(0,0)"/>
<path d="" fill="#FEBF1E" transform="translate(0,0)"/>
<path d="" fill="#FFBE1C" transform="translate(0,0)"/>
<path d="" fill="#FABB1B" transform="translate(0,0)"/>
<path d="" fill="#F8B819" transform="translate(0,0)"/>
<path d="" fill="#F9BC20" transform="translate(0,0)"/>
<path d="" fill="#F7B91D" transform="translate(0,0)"/>
<path d="" fill="#E5A722" transform="translate(0,0)"/>
<path d="" fill="#F6B41A" transform="translate(0,0)"/>
<path d="" fill="#FFBE1C" transform="translate(0,0)"/>
<path d="" fill="#F9B71D" transform="translate(0,0)"/>
<path d="" fill="#F5B820" transform="translate(0,0)"/>
<path d="" fill="#F8B71C" transform="translate(0,0)"/>
<path d="" fill="#F6B81C" transform="translate(0,0)"/>
<path d="" fill="#F7B71B" transform="translate(0,0)"/>
<path d="" fill="#DC9E1D" transform="translate(0,0)"/>
<path d="" fill="#F6B71E" transform="translate(0,0)"/>
<path d="" fill="#F6BB1C" transform="translate(0,0)"/>
<path d="" fill="#FABA1D" transform="translate(0,0)"/>
<path d="" fill="#FABB1C" transform="translate(0,0)"/>
<path d="" fill="#F9B71D" transform="translate(0,0)"/>
<path d="" fill="#FBBD1C" transform="translate(0,0)"/>
<path d="" fill="#F8B91E" transform="translate(0,0)"/>
<path d="" fill="#F9B81E" transform="translate(0,0)"/>
<path d="" fill="#FBBC1D" transform="translate(0,0)"/>
<path d="" fill="#F9B91D" transform="translate(0,0)"/>
<path d="" fill="#FBBC19" transform="translate(0,0)"/>
<path d="" fill="#F9B81E" transform="translate(0,0)"/>
<path d="" fill="#F8B71D" transform="translate(0,0)"/>
<path d="" fill="#F9BA1A" transform="translate(0,0)"/>
<path d="" fill="#F8BC18" transform="translate(0,0)"/>
<path d="" fill="#F9B91B" transform="translate(0,0)"/>
<path d="" fill="#DDA31D" transform="translate(0,0)"/>
<path d="" fill="#FABA1D" transform="translate(0,0)"/>
<path d="" fill="#F9B71E" transform="translate(0,0)"/>
<path d="" fill="#FBBC1B" transform="translate(0,0)"/>
<path d="" fill="#F9BA1B" transform="translate(0,0)"/>
<path d="" fill="#F6B31C" transform="translate(0,0)"/>
<path d="" fill="#FBBA1A" transform="translate(0,0)"/>
<path d="" fill="#F3B31F" transform="translate(0,0)"/>
<path d="" fill="#FDBE1D" transform="translate(0,0)"/>
<path d="" fill="#F5B819" transform="translate(0,0)"/>
<path d="" fill="#FBBD1D" transform="translate(0,0)"/>
<path d="" fill="#FABA1B" transform="translate(0,0)"/>
<path d="" fill="#E0A41B" transform="translate(0,0)"/>
<path d="" fill="#FDBA1C" transform="translate(0,0)"/>
<path d="" fill="#FBBB1D" transform="translate(0,0)"/>
<path d="" fill="#E1A01D" transform="translate(0,0)"/>
<path d="" fill="#F1B317" transform="translate(0,0)"/>
<path d="" fill="#F0B21A" transform="translate(0,0)"/>
<path d="" fill="#FBBB1C" transform="translate(0,0)"/>
<path d="" fill="#F8B81A" transform="translate(0,0)"/>
<path d="" fill="#FBBA1F" transform="translate(0,0)"/>
<path d="" fill="#E2A619" transform="translate(0,0)"/>
<path d="" fill="#E0A31B" transform="translate(0,0)"/>
<path d="" fill="#F8B71D" transform="translate(0,0)"/>
<path d="" fill="#F8B81C" transform="translate(0,0)"/>
<path d="" fill="#FBBC1D" transform="translate(0,0)"/>
<path d="" fill="#F8B91D" transform="translate(0,0)"/>
<path d="" fill="#F1B41B" transform="translate(0,0)"/>
<path d="" fill="#F6B61D" transform="translate(0,0)"/>
<path d="" fill="#E3A41A" transform="translate(0,0)"/>
<path d="" fill="#EEAD1C" transform="translate(0,0)"/>
<path d="" fill="#F7B61C" transform="translate(0,0)"/>
<path d="" fill="#F6B61A" transform="translate(0,0)"/>
<path d="" fill="#F4B81E" transform="translate(0,0)"/>
<path d="" fill="#F9BC1A" transform="translate(0,0)"/>
<path d="" fill="#EEAE1B" transform="translate(0,0)"/>
<path d="" fill="#EAAD1A" transform="translate(0,0)"/>
<path d="" fill="#E2A31A" transform="translate(0,0)"/>
<path d="" fill="#2A1A00" transform="translate(0,0)"/>
<path d="" fill="#251700" transform="translate(0,0)"/>
<path d="" fill="#271900" transform="translate(0,0)"/>
<path d="" fill="#F8B51A" transform="translate(0,0)"/>
<path d="" fill="#F8B81C" transform="translate(0,0)"/>
<path d="" fill="#FABA19" transform="translate(0,0)"/>
<path d="" fill="#F9BB1B" transform="translate(0,0)"/>
<path d="" fill="#FBBA1A" transform="translate(0,0)"/>
<path d="" fill="#F9B91B" transform="translate(0,0)"/>
<path d="" fill="#FAB91B" transform="translate(0,0)"/>
<path d="" fill="#F9B61A" transform="translate(0,0)"/>
<path d="" fill="#F8B91A" transform="translate(0,0)"/>
<path d="" fill="#F8B61C" transform="translate(0,0)"/>
<path d="" fill="#F0B21B" transform="translate(0,0)"/>
<path d="" fill="#E3A61D" transform="translate(0,0)"/>
<path d="" fill="#E7A819" transform="translate(0,0)"/>
<path d="" fill="#EAAB1C" transform="translate(0,0)"/>
<path d="" fill="#E7AC1B" transform="translate(0,0)"/>
<path d="" fill="#ECAF1C" transform="translate(0,0)"/>
<path d="" fill="#EFB01B" transform="translate(0,0)"/>
<path d="" fill="#EBAD1C" transform="translate(0,0)"/>
<path d="" fill="#EBB01F" transform="translate(0,0)"/>
<path d="" fill="#F2B01C" transform="translate(0,0)"/>
<path d="" fill="#F2B21B" transform="translate(0,0)"/>
<path d="" fill="#F4B21B" transform="translate(0,0)"/>
<path d="" fill="#E7A91B" transform="translate(0,0)"/>
<path d="" fill="#E5A61C" transform="translate(0,0)"/>
<path d="" fill="#F4B21C" transform="translate(0,0)"/>
<path d="" fill="#F6B71B" transform="translate(0,0)"/>
<path d="" fill="#F5B71D" transform="translate(0,0)"/>
<path d="" fill="#F5B61E" transform="translate(0,0)"/>
<path d="" fill="#F8B71F" transform="translate(0,0)"/>
<path d="" fill="#E6AA1A" transform="translate(0,0)"/>
<path d="" fill="#F8B81C" transform="translate(0,0)"/>
<path d="" fill="#E8AB1A" transform="translate(0,0)"/>
<path d="" fill="#F9BA1E" transform="translate(0,0)"/>
<path d="" fill="#FABA1B" transform="translate(0,0)"/>
<path d="" fill="#E8AC1B" transform="translate(0,0)"/>
<path d="" fill="#FBBC1C" transform="translate(0,0)"/>
<path d="" fill="#FCBE1D" transform="translate(0,0)"/>
<path d="" fill="#FCBE1D" transform="translate(0,0)"/>
<path d="" fill="#E8AC1B" transform="translate(0,0)"/>
<path d="" fill="#E9AD1B" transform="translate(0,0)"/>
<path d="" fill="#E8AD1C" transform="translate(0,0)"/>
<path d="" fill="#FEC11F" transform="translate(0,0)"/>
<path d="" fill="#E9AE1C" transform="translate(0,0)"/>
<path d="" fill="#241600" transform="translate(0,0)"/>
<path d="" fill="#FDBD1D" transform="translate(0,0)"/>
<path d="" fill="#3A2500" transform="translate(0,0)"/>
<path d="" fill="#E7AD1E" transform="translate(0,0)"/>
<path d="" fill="#EDB21C" transform="translate(0,0)"/>
<path d="" fill="#EBB11D" transform="translate(0,0)"/>
<path d="" fill="#0B0500" transform="translate(0,0)"/>
<path d="" fill="#FEBD1B" transform="translate(0,0)"/>
<path d="" fill="#EAAE19" transform="translate(0,0)"/>
<path d="" fill="#EAAE1A" transform="translate(0,0)"/>
<path d="" fill="#EBAF1B" transform="translate(0,0)"/>
<path d="" fill="#FCBD1E" transform="translate(0,0)"/>
<path d="" fill="#FFC01D" transform="translate(0,0)"/>
<path d="" fill="#ECAF1B" transform="translate(0,0)"/>
<path d="" fill="#010000" transform="translate(0,0)"/>
<path d="" fill="#FBBE1C" transform="translate(0,0)"/>
<path d="" fill="#000000" transform="translate(0,0)"/>
<path d="" fill="#E9AC1C" transform="translate(0,0)"/>
<path d="" fill="#FBBE21" transform="translate(0,0)"/>
<path d="" fill="#EAAE1D" transform="translate(0,0)"/>
<path d="" fill="#F7BA1E" transform="translate(0,0)"/>
<path d="" fill="#EAAD1C" transform="translate(0,0)"/>
<path d="" fill="#EAAD1B" transform="translate(0,0)"/>
<path d="" fill="#E9AD1B" transform="translate(0,0)"/>
<path d="" fill="#F8B61B" transform="translate(0,0)"/>
<path d="" fill="#F4B817" transform="translate(0,0)"/>
<path d="" fill="#F5B51D" transform="translate(0,0)"/>
<path d="" fill="#624407" transform="translate(0,0)"/>
<path d="" fill="#E8A91D" transform="translate(0,0)"/>
<path d="" fill="#F1AE1E" transform="translate(0,0)"/>
<path d="" fill="#E7A51B" transform="translate(0,0)"/>
<path d="" fill="#EEAF1E" transform="translate(0,0)"/>
<path d="" fill="#F1B21E" transform="translate(0,0)"/>
<path d="" fill="#D99B17" transform="translate(0,0)"/>
<path d="" fill="#D69B19" transform="translate(0,0)"/>
<path d="" fill="#F5B51C" transform="translate(0,0)"/>
<path d="" fill="#F0B31F" transform="translate(0,0)"/>
<path d="" fill="#F3B31B" transform="translate(0,0)"/>
<path d="" fill="#000000" transform="translate(0,0)"/>
<path d="" fill="#150D00" transform="translate(0,0)"/>
<path d="" fill="#FFBF1F" transform="translate(0,0)"/>
<path d="" fill="#FEBC1B" transform="translate(0,0)"/>
<path d="" fill="#FABD1F" transform="translate(0,0)"/>
<path d="" fill="#FBBB1B" transform="translate(0,0)"/>
<path d="" fill="#F9B81B" transform="translate(0,0)"/>
<path d="" fill="#F8B91F" transform="translate(0,0)"/>
<path d="" fill="#F6B720" transform="translate(0,0)"/>
<path d="" fill="#B28114" transform="translate(0,0)"/>
<path d="" fill="#F9BA1D" transform="translate(0,0)"/>
<path d="" fill="#FBB91C" transform="translate(0,0)"/>
<path d="" fill="#F7B71D" transform="translate(0,0)"/>
<path d="" fill="#000000" transform="translate(0,0)"/>
<path d="" fill="#F7B61E" transform="translate(0,0)"/>
<path d="" fill="#FABD1E" transform="translate(0,0)"/>
<path d="" fill="#FABA1F" transform="translate(0,0)"/>
<path d="" fill="#F7B61C" transform="translate(0,0)"/>
<path d="" fill="#FABC1E" transform="translate(0,0)"/>
<path d="" fill="#FBBC1E" transform="translate(0,0)"/>
<path d="" fill="#FABB1B" transform="translate(0,0)"/>
<path d="" fill="#F5B71D" transform="translate(0,0)"/>
<path d="" fill="#FABC1E" transform="translate(0,0)"/>
<path d="" fill="#F8BD1E" transform="translate(0,0)"/>
<path d="" fill="#F9B91C" transform="translate(0,0)"/>
<path d="" fill="#F4B61F" transform="translate(0,0)"/>
<path d="" fill="#FBBB1B" transform="translate(0,0)"/>
<path d="" fill="#F8BB1C" transform="translate(0,0)"/>
<path d="" fill="#F7BA1C" transform="translate(0,0)"/>
<path d="" fill="#FABA1C" transform="translate(0,0)"/>
<path d="" fill="#F0B11A" transform="translate(0,0)"/>
<path d="" fill="#F0AE1E" transform="translate(0,0)"/>
<path d="" fill="#EBAF1A" transform="translate(0,0)"/>
<path d="" fill="#FBBA1D" transform="translate(0,0)"/>
<path d="" fill="#F7BA1A" transform="translate(0,0)"/>
<path d="" fill="#FEBD1C" transform="translate(0,0)"/>
<path d="" fill="#FCBB1E" transform="translate(0,0)"/>
<path d="" fill="#FCBB1A" transform="translate(0,0)"/>
<path d="" fill="#FBBB1B" transform="translate(0,0)"/>
<path d="" fill="#FBBA1F" transform="translate(0,0)"/>
<path d="" fill="#FABE19" transform="translate(0,0)"/>
<path d="" fill="#FAB91C" transform="translate(0,0)"/>
<path d="" fill="#F6B522" transform="translate(0,0)"/>
<path d="" fill="#E8AB1D" transform="translate(0,0)"/>
<path d="" fill="#F8BA1F" transform="translate(0,0)"/>
<path d="" fill="#FABA1A" transform="translate(0,0)"/>
<path d="" fill="#FDBC1C" transform="translate(0,0)"/>
<path d="" fill="#FCBD1C" transform="translate(0,0)"/>
<path d="" fill="#FDBD1D" transform="translate(0,0)"/>
<path d="" fill="#FCBC1D" transform="translate(0,0)"/>
<path d="" fill="#040100" transform="translate(0,0)"/>
<path d="" fill="#F7BA1C" transform="translate(0,0)"/>
<path d="" fill="#FCC11A" transform="translate(0,0)"/>
<path d="" fill="#FBBF1A" transform="translate(0,0)"/>
<path d="" fill="#F8B91C" transform="translate(0,0)"/>
<path d="" fill="#F9BD1F" transform="translate(0,0)"/>
<path d="" fill="#FBBB1D" transform="translate(0,0)"/>
<path d="" fill="#FABC1D" transform="translate(0,0)"/>
<path d="" fill="#FCBC1D" transform="translate(0,0)"/>
<path d="" fill="#FABD1D" transform="translate(0,0)"/>
<path d="" fill="#E6A81D" transform="translate(0,0)"/>
<path d="" fill="#FBBD1D" transform="translate(0,0)"/>
<path d="" fill="#E7AA1F" transform="translate(0,0)"/>
<path d="" fill="#E9AB1D" transform="translate(0,0)"/>
<path d="" fill="#FBBD1D" transform="translate(0,0)"/>
<path d="" fill="#FABD1D" transform="translate(0,0)"/>
<path d="" fill="#F9BB1F" transform="translate(0,0)"/>
<path d="" fill="#E8AA20" transform="translate(0,0)"/>
<path d="" fill="#E5A81C" transform="translate(0,0)"/>
<path d="" fill="#FABB1B" transform="translate(0,0)"/>
<path d="" fill="#FABD1B" transform="translate(0,0)"/>
<path d="" fill="#FBBD1E" transform="translate(0,0)"/>
<path d="" fill="#E7A91D" transform="translate(0,0)"/>
<path d="" fill="#E6A81E" transform="translate(0,0)"/>
<path d="" fill="#FBBC1F" transform="translate(0,0)"/>
<path d="" fill="#E6A91B" transform="translate(0,0)"/>
<path d="" fill="#FABD17" transform="translate(0,0)"/>
<path d="" fill="#F9BB1F" transform="translate(0,0)"/>
<path d="" fill="#FCB71B" transform="translate(0,0)"/>
<path d="" fill="#120B00" transform="translate(0,0)"/>
<path d="" fill="#F9BA19" transform="translate(0,0)"/>
<path d="" fill="#E5A51A" transform="translate(0,0)"/>
<path d="" fill="#F8B71D" transform="translate(0,0)"/>
<path d="" fill="#FBBC1C" transform="translate(0,0)"/>
<path d="" fill="#E3A71D" transform="translate(0,0)"/>
<path d="" fill="#FBBD19" transform="translate(0,0)"/>
<path d="" fill="#F8B81F" transform="translate(0,0)"/>
<path d="" fill="#FDBB1C" transform="translate(0,0)"/>
<path d="" fill="#FAB81C" transform="translate(0,0)"/>
<path d="" fill="#FABB1E" transform="translate(0,0)"/>
<path d="" fill="#FDBB1A" transform="translate(0,0)"/>
<path d="" fill="#E2A71B" transform="translate(0,0)"/>
<path d="" fill="#FBBA1B" transform="translate(0,0)"/>
<path d="" fill="#FABB1D" transform="translate(0,0)"/>
<path d="" fill="#E4A61E" transform="translate(0,0)"/>
<path d="" fill="#E6A71B" transform="translate(0,0)"/>
<path d="" fill="#E3A51E" transform="translate(0,0)"/>
<path d="" fill="#E8AB1A" transform="translate(0,0)"/>
<path d="" fill="#EFB11C" transform="translate(0,0)"/>
<path d="" fill="#E4A818" transform="translate(0,0)"/>
<path d="" fill="#040200" transform="translate(0,0)"/>
<path d="" fill="#F1B31B" transform="translate(0,0)"/>
<path d="" fill="#E3A61C" transform="translate(0,0)"/>
<path d="" fill="#ECB01B" transform="translate(0,0)"/>
<path d="" fill="#F3B419" transform="translate(0,0)"/>
<path d="" fill="#EFB119" transform="translate(0,0)"/>
<path d="" fill="#EBB01D" transform="translate(0,0)"/>
<path d="" fill="#EDAF1C" transform="translate(0,0)"/>
<path d="" fill="#E4A619" transform="translate(0,0)"/>
<path d="" fill="#E7AB1A" transform="translate(0,0)"/>
<path d="" fill="#000000" transform="translate(0,0)"/>
<path d="" fill="#E6A519" transform="translate(0,0)"/>
<path d="" fill="#E2A41B" transform="translate(0,0)"/>
<path d="" fill="#E2A21A" transform="translate(0,0)"/>
<path d="" fill="#E1A318" transform="translate(0,0)"/>
<path d="" fill="#E4A51A" transform="translate(0,0)"/>
<path d="" fill="#624306" transform="translate(0,0)"/>
<path d="" fill="#372500" transform="translate(0,0)"/>
<path d="" fill="#3A2703" transform="translate(0,0)"/>
<path d="" fill="#000000" transform="translate(0,0)"/>
<path d="" fill="#000100" transform="translate(0,0)"/>
<path d="" fill="#140B00" transform="translate(0,0)"/>
<path d="" fill="#140D00" transform="translate(0,0)"/>
<path d="" fill="#0A0400" transform="translate(0,0)"/>
<path d="" fill="#150B00" transform="translate(0,0)"/>
<path d="" fill="#000000" transform="translate(0,0)"/>
<path d="" fill="#110900" transform="translate(0,0)"/>
</svg>
